<?xml version="1.0" encoding="UTF-8" standalone="no"?>
<svg
   xmlns:dc="http://purl.org/dc/elements/1.1/"
   xmlns:cc="http://creativecommons.org/ns#"
   xmlns:rdf="http://www.w3.org/1999/02/22-rdf-syntax-ns#"
   xmlns:svg="http://www.w3.org/2000/svg"
   xmlns="http://www.w3.org/2000/svg"
   xmlns:sodipodi="http://sodipodi.sourceforge.net/DTD/sodipodi-0.dtd"
   xmlns:inkscape="http://www.inkscape.org/namespaces/inkscape"
   width="744.094488189"
   height="1052.36220472"
   id="svg3336"
   version="1.1"
   inkscape:version="0.91 r13725"
   sodipodi:docname="Imagotipo.svg">
  <metadata
     id="metadata3560">
    <rdf:RDF>
      <cc:Work
         rdf:about="">
        <dc:format>image/svg+xml</dc:format>
        <dc:type
           rdf:resource="http://purl.org/dc/dcmitype/StillImage" />
        <dc:title></dc:title>
      </cc:Work>
    </rdf:RDF>
  </metadata>
  <sodipodi:namedview
     pagecolor="#ffffff"
     bordercolor="#666666"
     borderopacity="1"
     objecttolerance="10"
     gridtolerance="10"
     guidetolerance="10"
     inkscape:pageopacity="0"
     inkscape:pageshadow="2"
     inkscape:window-width="1366"
     inkscape:window-height="705"
     id="namedview3558"
     showgrid="false"
     inkscape:zoom="1.4862946"
     inkscape:cx="60.626428"
     inkscape:cy="182.22002"
     inkscape:window-x="-8"
     inkscape:window-y="-8"
     inkscape:window-maximized="1"
     inkscape:current-layer="g3356" />
  <desc
     id="desc3338">C:\Users\carlo\Documents\Inventoteca\Imagotipo.dxf - scale = 1.000000, origin = (0.000000, 0.000000), auto = False</desc>
  <defs
     id="defs3340">
    <marker
       refY="0.0"
       refX="0.0"
       style="overflow:visible"
       id="DistanceX"
       orient="auto">
      <path
         style="stroke:#000000; stroke-width:0.5"
         d="M 3,-3 L -3,3 M 0,-5 L  0,5"
         id="path3343" />
    </marker>
    <pattern
       height="8"
       width="8"
       patternUnits="userSpaceOnUse"
       y="0"
       x="0"
       id="Hatch">
      <path
         linecap="square"
         stroke="#000000"
         stroke-width="0.25"
         d="M8 4 l-4,4"
         id="path3346" />
      <path
         linecap="square"
         stroke="#000000"
         stroke-width="0.25"
         d="M6 2 l-4,4"
         id="path3348" />
      <path
         linecap="square"
         stroke="#000000"
         stroke-width="0.25"
         d="M4 0 l-4,4"
         id="path3350" />
    </pattern>
    <symbol
       id="*MODEL_SPACE" />
    <symbol
       id="*PAPER_SPACE" />
  </defs>
  <g
     inkscape:label="0"
     inkscape:groupmode="layer"
     id="g3354" />
  <g
     inkscape:label="Capa_1"
     inkscape:groupmode="layer"
     id="g3356">
    <path
       style="stroke:#000000;fill:none"
       d="M 89.089150,1051.593056 89.089150,1051.592807"
       id="path3358" />
    <path
       style="stroke:#000000;fill:none"
       d="M 89.089150,1051.592807 C 83.196638,1048.773019 77.304125,1045.953229 71.553599,1042.276834 C 66.499538,1039.045699 61.555153,1035.152887 57.942094,1031.354947 C 54.954429,1028.214402 52.877091,1025.138729 49.385448,1019.734488 C 48.894294,1018.974297 48.375154,1018.168030 48.614033,1017.856841 C 48.834982,1017.569011 49.704427,1017.704727 50.491590,1017.849685 C 53.415046,1018.388044 55.203570,1019.053863 57.213489,1019.704586 C 60.793589,1020.863665 65.076116,1021.974849 69.152666,1023.129312 C 72.912351,1024.194039 76.496835,1025.295579 80.124019,1026.423436 C 84.019489,1027.634716 87.964209,1028.876351 91.861899,1030.107687 C 93.154678,1030.516094 94.442283,1030.923368 95.756380,1031.325584 C 96.810433,1031.648206 97.881530,1031.967575 98.892838,1032.261060 C 99.436074,1032.418710 99.962057,1032.568891 100.592256,1032.711597 C 101.033188,1032.811444 101.525137,1032.907632 101.748869,1033.130418 C 102.220934,1033.600488 101.498919,1034.634163 100.885466,1035.578077 C 98.934265,1038.580371 98.081363,1040.674570 97.009900,1042.867215 C 95.927141,1045.082975 94.621188,1047.399267 93.025351,1050.196571 C 92.487973,1051.138526 91.917725,1052.135025 91.137223,1052.276618 C 90.537335,1052.385445 89.813243,1051.989250 89.089150,1051.593056"
       id="path3360" />
    <path
       style="stroke:#000000;fill:none"
       d="M 96.401048,1042.786956 96.401048,1042.786956"
       id="path3362" />
    <path
       style="stroke:#000000;fill:none"
       d="M 78.104728,895.010797 74.265537,892.980287"
       id="path3366" />
    <path
       style="stroke:#000000;fill:none"
       d="M 74.265537,892.980287 69.694540,891.873018"
       id="path3368" />
    <path
       style="stroke:#000000;fill:none"
       d="M 176.964080,1052.239946 C 174.531058,1052.097800 172.098035,1051.955650 169.994473,1051.528542 C 168.000568,1051.123699 166.302671,1050.462831 163.417232,1050.613308 C 162.009327,1050.686731 160.318692,1050.953319 160.253280,1049.914595 C 160.248197,1049.833886 160.252927,1049.745297 160.274060,1049.663691 C 160.321350,1049.481077 160.450783,1049.333435 160.576426,1049.188320 C 160.770703,1048.963933 160.955917,1048.745587 161.138518,1048.522777 C 161.833708,1047.674505 162.491023,1046.761510 162.983126,1045.766487 C 163.474524,1044.772891 163.801181,1043.697502 163.957388,1042.601202 C 164.113744,1041.503850 164.099322,1040.385546 163.981480,1039.286278 C 163.653309,1036.225001 162.523089,1033.311345 161.425591,1030.415390 C 159.769557,1026.045632 158.188024,1021.716176 156.335938,1017.448544 C 154.373352,1012.926294 152.106966,1008.473464 150.149389,1004.046476 C 149.583282,1002.766244 149.043000,1001.488173 148.248470,1000.224371 C 147.920108,999.702067 147.548320,999.182201 147.571221,998.595370 C 147.577703,998.429261 147.615810,998.257787 147.680550,998.108115 C 147.988392,997.396420 148.898438,997.177709 149.714837,996.883342 C 151.697959,996.168294 153.128516,995.006835 154.679837,993.947620 C 156.808014,992.494536 159.163464,991.233873 161.500669,989.936526 C 163.828382,988.644449 166.138000,987.315985 168.293244,985.940774 C 169.847649,984.948944 171.321756,983.932797 173.184158,983.045350 C 173.923514,982.693041 174.724066,982.361016 175.114539,981.877075 C 176.095070,980.661836 174.489726,978.488652 173.240996,976.529722 C 170.646636,972.459848 169.591574,969.314779 167.990833,965.993513 C 166.448217,962.792846 164.398831,959.428545 162.307469,956.175455 C 158.811330,950.737249 155.197885,945.609834 150.764565,941.128477 C 146.987694,937.310681 142.615771,933.961783 137.911640,931.339193 C 132.067161,928.080851 125.709888,925.943632 119.426248,923.515467 C 119.148445,923.408117 118.870786,923.300198 118.617985,923.149071 C 118.348305,922.987853 118.106913,922.777465 117.881480,922.554287 C 117.545939,922.222103 117.245753,921.861583 116.938999,921.506818 C 114.457341,918.636745 111.545835,916.143313 108.529845,913.810530 C 104.320468,910.554696 99.907562,907.611798 95.387405,904.843648 C 89.738193,901.384064 83.921460,898.197431 78.104728,895.010797"
       id="path3370" />
    <path
       style="stroke:#000000;fill:none"
       d="M 69.694540,891.873018 C 67.241750,891.293712 64.788960,890.714408 62.288284,890.182719 C 59.709842,889.634496 57.080488,889.136895 54.618070,888.594443 C 52.649727,888.160832 50.788051,887.698562 48.457590,887.475467 C 47.610704,887.394395 46.701912,887.344908 46.266176,886.863203 C 45.827340,886.378070 45.868316,885.454547 45.947616,884.593925 C 46.163372,882.252387 46.662820,880.376471 47.195549,878.485419 C 52.914028,858.186273 62.467334,836.143029 76.567440,818.350216 C 90.346672,800.962312 108.468117,787.633587 128.653682,778.797218 C 149.304660,769.757111 172.116040,765.418906 194.453780,766.661166 C 205.116518,767.254148 215.671335,769.118669 225.939214,772.024087 C 236.165513,774.917740 246.107193,778.843878 255.447564,783.902869 C 264.342570,788.720640 272.692242,794.565808 280.302500,801.220138 C 285.306019,805.595163 289.989913,810.319962 294.381665,815.307352 C 298.341355,819.804081 302.063556,824.514276 305.416742,829.473834 C 308.807212,834.488536 311.820416,839.758178 314.539507,845.172495 C 317.052872,850.177164 319.314947,855.305443 321.246174,860.557375 C 323.134075,865.691482 324.705808,870.943756 325.968319,876.269743 C 327.251169,881.681537 328.214755,887.169439 328.821670,892.694687 C 329.261630,896.700011 329.514161,900.724960 329.672076,904.749715 C 329.841702,909.072947 329.902157,913.395955 329.851013,917.729694 C 329.814229,920.846529 329.719720,923.968916 329.295260,927.049257 C 329.059575,928.759643 328.722162,930.457065 328.387630,932.153141 C 328.028649,933.973173 327.672985,935.791653 327.293464,937.607294 C 327.054332,938.751311 326.805727,939.894200 326.492620,941.019655 C 326.387874,941.396161 326.275909,941.770715 326.168436,942.146527 C 326.004685,942.719126 325.851359,943.294643 325.700032,943.870609 C 325.529443,944.519887 325.361392,945.169737 325.188789,945.818624 C 321.058825,961.344874 314.322259,976.319562 305.286331,989.706378 C 296.311763,1003.002289 285.068956,1014.731819 272.176851,1024.268980 C 259.160875,1033.897777 244.463756,1041.291872 229.086639,1046.138547 C 226.070710,1047.089130 223.028623,1047.941720 219.958373,1048.687618 C 216.843733,1049.444299 213.700110,1050.091180 210.536813,1050.604212 C 206.758639,1051.216967 202.952399,1051.638782 199.146161,1052.060598"
       id="path3372" />
    <path
       style="stroke:#000000;fill:none"
       d="M 176.964080,1052.239946 176.964080,1052.239946"
       id="path3374" />
    <path
       style="stroke:#000000;fill:none"
       d="M 199.146161,1052.060598 C 197.104206,1052.144639 195.062251,1052.228683 193.019397,1052.285250 C 189.869261,1052.372478 186.716986,1052.394368 183.565723,1052.361680 C 181.364846,1052.338849 179.164463,1052.289397 176.964080,1052.239946"
       id="path3376" />
    <path
       style="stroke:#000000;fill:none"
       d="M 326.052928,940.362257 326.134531,939.460578"
       id="path3380" />
    <path
       style="stroke:#000000;fill:none"
       d="M 233.010730,774.558896 232.215707,774.304565"
       id="path3384" />
    <path
       style="stroke:#000000;fill:none"
       d="M 232.215707,774.304565 231.543018,774.021076"
       id="path3386" />
    <path
       style="stroke:#000000;fill:none"
       d="M 201.111750,767.616257 200.728070,767.615885"
       id="path3390" />
    <path
       style="stroke:#000000;fill:none"
       d="M 200.728070,767.615885 199.457238,767.483228"
       id="path3392" />
    <path
       style="stroke:#000000;fill:none"
       d="M 198.712049,1051.613646 198.712020,1051.613646"
       id="path3412" />
    <path
       style="stroke:#000000;fill:none"
       d="M 259.659928,1031.774056 259.659928,1031.774056"
       id="path3416" />
    <path
       style="stroke:#000000;fill:none"
       d="M 146.037249,1040.965448 146.037249,1040.965448"
       id="path3420" />
    <path
       style="stroke:#000000;fill:none"
       d="M 143.992300,1013.754646 142.304648,1010.132206"
       id="path3424" />
    <path
       style="stroke:#000000;fill:none"
       d="M 153.356411,1042.193278 C 153.645913,1041.937430 153.935418,1041.681584 154.072494,1041.371265 C 154.297295,1040.862354 154.112146,1040.206942 153.934869,1039.588724 C 153.573305,1038.327837 153.244491,1037.221672 152.885700,1036.096518 C 152.104284,1033.646028 151.180680,1031.105469 150.236809,1028.609751 C 149.281525,1026.083855 148.305480,1023.603891 147.264216,1021.142061 C 146.217512,1018.667372 145.104906,1016.211008 143.992300,1013.754646"
       id="path3428" />
    <path
       style="stroke:#000000;fill:none"
       d="M 125.788178,1030.652897 122.708898,1030.769107"
       id="path3430" />
    <path
       style="stroke:#000000;fill:none"
       d="M 122.708898,1030.769107 124.343089,1031.591395"
       id="path3432" />
    <path
       style="stroke:#000000;fill:none"
       d="M 142.169319,1013.647985 C 141.807912,1016.800487 141.446502,1019.952986 140.022359,1022.728632 C 138.809672,1025.092149 136.826412,1027.182415 134.509959,1028.450945 C 131.887411,1029.887097 128.837796,1030.269997 125.788178,1030.652897"
       id="path3434" />
    <path
       style="stroke:#000000;fill:none"
       d="M 153.356411,1042.193278 153.356411,1042.193278"
       id="path3436" />
    <path
       style="stroke:#000000;fill:none"
       d="M 124.343089,1031.591395 C 126.775290,1032.736064 129.207491,1033.880731 131.670697,1034.942124 C 134.506811,1036.164203 137.384028,1037.275885 140.293944,1038.363503 C 143.159456,1039.434525 146.056676,1040.482212 148.928959,1041.346137 C 149.810935,1041.611418 150.690560,1041.859372 151.609749,1042.172361 C 151.992407,1042.302658 152.381922,1042.444227 152.756757,1042.391819 C 152.959505,1042.363472 153.157957,1042.278374 153.356411,1042.193278"
       id="path3438" />
    <path
       style="stroke:#000000;fill:none"
       d="M 79.329458,1002.193115 79.384259,988.822116"
       id="path3440" />
    <path
       style="stroke:#000000;fill:none"
       d="M 119.376110,1021.398938 C 115.389358,1021.120799 111.402606,1020.842661 107.423225,1020.431862 C 103.400066,1020.016544 99.384440,1019.465630 95.411510,1018.786604 C 91.501532,1018.118337 87.632907,1017.325985 83.698530,1016.512167 C 82.976023,1016.362718 82.251299,1016.212545 81.560058,1016.034629 C 81.058719,1015.905591 80.574993,1015.761960 80.007808,1015.694034 C 79.778244,1015.666541 79.535009,1015.651450 79.377860,1015.564116 C 78.930049,1015.315249 79.181270,1014.479752 79.333423,1013.731784 C 79.732195,1011.771465 79.450482,1010.412368 79.316031,1008.928119 C 79.127523,1006.847131 79.228492,1004.520125 79.329458,1002.193115"
       id="path3444" />
    <path
       style="stroke:#000000;fill:none"
       d="M 81.090450,931.364408 79.384128,930.763715"
       id="path3446" />
    <path
       style="stroke:#000000;fill:none"
       d="M 79.384128,930.763715 79.328728,920.987008"
       id="path3448" />
    <path
       style="stroke:#000000;fill:none"
       d="M 79.328728,920.987008 79.273329,911.210297"
       id="path3450" />
    <path
       style="stroke:#000000;fill:none"
       d="M 79.273329,911.210297 80.546648,911.354357"
       id="path3452" />
    <path
       style="stroke:#000000;fill:none"
       d="M 81.068148,988.231677 C 88.310020,983.503517 95.551892,978.775358 99.062641,971.393598 C 102.363051,964.454099 102.366028,955.169441 99.071749,948.226164 C 95.566589,940.838420 88.328519,936.101413 81.090450,931.364408"
       id="path3454" />
    <path
       style="stroke:#000000;fill:none"
       d="M 119.375940,1021.398938 119.376110,1021.398938"
       id="path3456" />
    <path
       style="stroke:#000000;fill:none"
       d="M 80.546648,911.354357 C 84.802617,912.338731 89.058586,913.323107 93.024885,915.031971 C 97.272898,916.862210 101.188631,919.523507 104.730572,922.588538 C 108.285503,925.664810 111.463894,929.147783 114.070830,932.995786 C 117.857094,938.584553 120.437923,944.943319 122.676512,951.392522 C 125.483273,959.478585 127.752021,967.706816 129.178857,976.013249 C 130.713885,984.949536 131.274480,993.976334 132.610019,1003.193357 C 133.223700,1007.428583 134.001003,1011.703973 132.542360,1015.781567 C 131.817746,1017.807203 130.541339,1019.784026 128.865352,1020.839895 C 126.317732,1022.444890 122.846836,1021.921912 119.375940,1021.398938"
       id="path3458" />
    <path
       style="stroke:#000000;fill:none"
       d="M 128.668649,1020.460698 128.672940,1020.460698"
       id="path3476" />
    <path
       style="stroke:#000000;fill:none"
       d="M 62.376839,921.419267 62.321439,931.146056"
       id="path3480" />
    <path
       style="stroke:#000000;fill:none"
       d="M 62.321439,931.146056 60.721788,931.731385"
       id="path3482" />
    <path
       style="stroke:#000000;fill:none"
       d="M 60.721788,931.731385 C 53.840626,936.430547 46.959461,941.129705 43.626755,948.265790 C 40.437327,955.095085 40.497809,964.156277 43.691539,971.026146 C 47.075933,978.306143 53.978850,983.125364 60.881769,987.944588"
       id="path3490" />
    <path
       style="stroke:#000000;fill:none"
       d="M 59.122130,1009.719028 59.122028,1009.719028"
       id="path3492" />
    <path
       style="stroke:#000000;fill:none"
       d="M 62.001439,921.486706 62.001439,912.284858"
       id="path3500" />
    <path
       style="stroke:#000000;fill:none"
       d="M 62.001439,912.284858 61.201648,912.428656"
       id="path3502" />
    <path
       style="stroke:#000000;fill:none"
       d="M 62.001439,999.496818 62.001439,999.496818"
       id="path3506" />
    <path
       style="stroke:#000000;fill:none"
       d="M 61.201648,912.428656 C 49.412158,917.991606 37.622669,923.554557 30.722963,933.305427 C 23.924177,942.913675 21.873177,956.588229 24.016591,969.085057 C 26.276493,982.261049 33.199105,994.127825 44.085179,1001.801408 C 46.073787,1003.203176 48.194655,1004.465017 50.141002,1005.334757 C 52.298911,1006.299036 54.242298,1006.781340 57.210922,1008.566033 C 59.024610,1009.656396 61.220981,1011.232892 61.734858,1010.011157 C 61.832053,1009.780077 61.869058,1009.448892 61.897194,1009.127691 C 61.998210,1007.974478 61.984898,1006.949950 61.978937,1005.903709 C 61.967095,1003.825209 61.984265,1001.661013 62.001439,999.496818"
       id="path3508" />
    <path
       style="stroke:#000000;fill:none"
       d="M 144.257280,988.529737 144.257280,988.529737"
       id="path3510" />
    <path
       style="stroke:#000000;fill:none"
       d="M 144.257280,988.529737 C 144.233430,988.430464 144.209582,988.331190 144.187214,988.231586 C 144.155708,988.091291 144.127136,987.950343 144.101654,987.808759 C 144.074286,987.656695 144.050482,987.503898 144.019249,987.352817 C 143.940001,986.969479 143.812923,986.597183 143.686995,986.225143 C 143.439976,985.495359 143.197383,984.766563 142.946328,984.041291 C 142.626414,983.117093 142.292760,982.198617 141.957600,981.274096 C 139.095371,973.378786 136.123336,965.042547 133.576332,957.620368 C 131.898797,952.731893 130.405638,948.239931 128.528585,941.881881 C 127.885109,939.702264 127.196517,937.303345 127.534438,936.303727 C 128.287929,934.074798 134.145168,938.803098 138.490867,942.594670 C 144.692016,948.005100 147.815334,951.508144 150.656031,955.899901 C 153.914046,960.936835 156.800304,967.142777 161.530738,973.485995 C 162.394504,974.644251 163.319757,975.807084 163.141026,976.900906 C 163.005577,977.729846 162.236089,978.519151 161.447647,979.207238 C 159.115800,981.242279 156.618164,982.391953 154.165379,983.517447 C 151.925157,984.545403 149.722349,985.553187 147.480960,987.397402 C 146.618837,988.106757 145.751006,988.939859 144.828259,988.739346 C 144.639466,988.698321 144.448374,988.614028 144.257280,988.529737"
       id="path3512" />
    <path
       style="stroke:#000000;fill:none"
       d="M 153.840320,983.030807 153.840320,983.030807"
       id="path3514" />
    <path
       style="stroke:#000000;fill:none"
       d="M 12.675267,963.166918 12.675267,963.166946"
       id="path3524" />
    <path
       style="stroke:#000000;fill:none"
       d="M 12.877179,962.415188 12.877430,962.415188"
       id="path3528" />
    <path
       style="stroke:#000000;fill:none"
       d="M 65.077848,901.648566 67.866920,901.629266"
       id="path3532" />
    <path
       style="stroke:#000000;fill:none"
       d="M 67.866920,901.629266 65.947287,901.120755"
       id="path3534" />
    <path
       style="stroke:#000000;fill:none"
       d="M 12.123570,955.923537 C 13.389860,946.443398 14.656150,936.963259 18.914983,928.585769 C 23.019138,920.512543 29.902410,913.463326 37.872008,909.155948 C 46.157798,904.677675 55.617824,903.163121 65.077848,901.648566"
       id="path3536" />
    <path
       style="stroke:#000000;fill:none"
       d="M 12.123702,955.923598 12.123570,955.923537"
       id="path3538" />
    <path
       style="stroke:#000000;fill:none"
       d="M 65.947287,901.120755 C 60.415175,899.907945 54.883060,898.695132 49.296722,897.642281 C 42.319302,896.327254 35.257291,895.261774 28.268225,894.611500 C 20.927500,893.928508 13.667245,893.703556 6.054658,892.488596 C 4.736179,892.278168 3.407130,892.038042 2.190073,892.534549 C 1.547275,892.796783 0.935717,893.264500 0.619400,893.838275 C 0.122210,894.740138 0.354433,895.904024 0.563820,897.046248 C 1.903128,904.352293 2.308112,910.772050 3.177949,917.401417 C 4.045699,924.014876 5.376073,930.836941 6.780740,937.555017 C 8.045766,943.605236 9.371049,949.571114 11.013487,955.500418 C 11.198143,956.167036 11.386807,956.833192 11.556665,957.500911 C 11.680334,957.987065 11.794035,958.474047 11.944070,958.959601 C 12.005603,959.158739 12.073248,959.357636 12.091839,959.560686 C 12.093695,959.580961 12.095062,959.601277 12.099201,959.622052 C 12.102404,959.638130 12.107267,959.654482 12.118456,959.665837 C 12.125869,959.673360 12.136059,959.678688 12.145361,959.682578 C 12.296640,959.745826 12.213153,959.428245 12.161972,959.167501 C 12.027852,958.484212 12.115592,958.191235 12.154233,957.817052 C 12.208417,957.292353 12.166058,956.607977 12.123702,955.923598"
       id="path3540" />
    <path
       style="stroke:#000000;fill:none"
       d="M 334.176420,870.717926 C 330.600951,861.174989 327.025486,851.632051 323.356513,842.228991 C 319.670467,832.782175 315.890041,823.476542 307.206727,816.218659 C 298.920687,809.292834 286.170124,804.231670 287.148779,794.976638 C 287.288349,793.656733 287.707158,792.251530 288.309600,790.975049 C 289.581126,788.280880 291.670685,786.160131 293.758485,784.072540 C 296.106161,781.725098 298.451612,779.419583 301.039040,777.380818 C 310.994082,769.536737 324.531107,765.641356 337.516552,766.568245 C 349.863759,767.449576 361.712274,772.690795 370.611703,781.177698 C 379.989526,790.120820 386.092682,802.667953 387.291449,815.455908 C 388.187603,825.015710 386.342936,834.710096 382.210217,843.497092 C 378.159879,852.108926 371.911800,859.849186 364.144283,864.797174 C 356.313539,869.785439 346.938520,871.935789 337.563500,874.086137"
       id="path3546" />
    <path
       style="stroke:#000000;fill:none"
       d="M 340.449980,873.274596 340.449980,873.274596"
       id="path3554" />
  </g>
</svg>
