<?xml version="1.0" encoding="UTF-8" standalone="no"?>
<!-- Created with Inkscape (http://www.inkscape.org/) -->

<svg
   xmlns:dc="http://purl.org/dc/elements/1.1/"
   xmlns:cc="http://creativecommons.org/ns#"
   xmlns:rdf="http://www.w3.org/1999/02/22-rdf-syntax-ns#"
   xmlns:svg="http://www.w3.org/2000/svg"
   xmlns="http://www.w3.org/2000/svg"
   xmlns:sodipodi="http://sodipodi.sourceforge.net/DTD/sodipodi-0.dtd"
   xmlns:inkscape="http://www.inkscape.org/namespaces/inkscape"
   width="459.07452mm"
   height="109.66948mm"
   viewBox="0 0 1626.642 388.59264"
   id="svg3797"
   version="1.1"
   inkscape:version="0.91 r13725"
   sodipodi:docname="InventotecaLogoTexto.svg">
  <defs
     id="defs3799" />
  <sodipodi:namedview
     id="base"
     pagecolor="#ffffff"
     bordercolor="#666666"
     borderopacity="1.0"
     inkscape:pageopacity="0.0"
     inkscape:pageshadow="2"
     inkscape:zoom="0.7"
     inkscape:cx="347.1672"
     inkscape:cy="72.48819"
     inkscape:document-units="mm"
     inkscape:current-layer="layer1"
     showgrid="false"
     fit-margin-top="0"
     fit-margin-left="0"
     fit-margin-right="0"
     fit-margin-bottom="0"
     inkscape:window-width="1366"
     inkscape:window-height="705"
     inkscape:window-x="-8"
     inkscape:window-y="-8"
     inkscape:window-maximized="1" />
  <metadata
     id="metadata3802">
    <rdf:RDF>
      <cc:Work
         rdf:about="">
        <dc:format>image/svg+xml</dc:format>
        <dc:type
           rdf:resource="http://purl.org/dc/dcmitype/StillImage" />
        <dc:title></dc:title>
      </cc:Work>
    </rdf:RDF>
  </metadata>
  <g
     inkscape:label="Capa 1"
     inkscape:groupmode="layer"
     id="layer1"
     transform="translate(627.60671,-240.92303)">
    <path
       style="color:#000000;font-style:normal;font-variant:normal;font-weight:normal;font-stretch:normal;font-size:medium;line-height:normal;font-family:sans-serif;text-indent:0;text-align:start;text-decoration:none;text-decoration-line:none;text-decoration-style:solid;text-decoration-color:#000000;letter-spacing:normal;word-spacing:normal;text-transform:none;direction:ltr;block-progression:tb;writing-mode:lr-tb;baseline-shift:baseline;text-anchor:start;white-space:normal;clip-rule:nonzero;display:inline;overflow:visible;visibility:visible;opacity:1;isolation:auto;mix-blend-mode:normal;color-interpolation:sRGB;color-interpolation-filters:linearRGB;solid-color:#000000;solid-opacity:1;fill-opacity:1;fill-rule:nonzero;stroke:none;stroke-width:1;stroke-linecap:butt;stroke-linejoin:miter;stroke-miterlimit:4;stroke-dasharray:none;stroke-dashoffset:0;stroke-opacity:1;color-rendering:auto;image-rendering:auto;shape-rendering:auto;text-rendering:auto;enable-background:accumulate"
       d="m -617.12367,480.69683 -5.24039,5.17607 c -1.43054,1.41273 -2.73064,2.83779 -3.67635,4.00171 -0.47288,0.58196 -0.85693,1.09868 -1.1265,1.51916 -0.26953,0.42049 -0.4398,0.71558 -0.4398,0.99632 0,0.30357 0.19443,0.57205 0.51762,0.75322 0.32315,0.18117 0.78379,0.31032 1.41817,0.41214 1.26874,0.20366 3.23639,0.28723 6.1103,0.28723 l 7.66237,0 0,66.89685 c 0,18.44977 0.078,35.29999 0.2042,47.58685 0.0631,6.14343 0.13817,11.1457 0.22139,14.63733 0.0416,1.74582 0.0856,3.1136 0.1309,4.05932 0.0226,0.47286 0.0458,0.84006 0.0696,1.09879 0.0119,0.12936 0.0241,0.23101 0.0375,0.30967 0.006,0.0393 0.013,0.0725 0.0226,0.10472 0.009,0.0322 0.005,0.0611 0.0666,0.12267 0.0891,0.0891 0.19785,0.13442 0.33587,0.18026 0.13802,0.0458 0.30607,0.0851 0.50414,0.12043 0.39614,0.0707 0.91157,0.12495 1.5169,0.1623 1.21064,0.0747 2.77721,0.0807 4.41463,0.001 l 6.11253,-0.29545 0.25206,-74.06031 0.25207,-74.07078 -9.7395,0 -9.62657,0 z m 0.15782,0.38297 9.46875,0 9.35581,0 -0.25134,73.68631 -0.25058,73.69679 -5.74978,0.27825 c -1.62459,0.0786 -3.18032,0.0721 -4.37197,-0.001 -0.59582,-0.0368 -1.10092,-0.0906 -1.47351,-0.15708 -0.18631,-0.0332 -0.33996,-0.0701 -0.45106,-0.10696 -0.0967,-0.0321 -0.14223,-0.0628 -0.16153,-0.0763 -0.004,-0.0106 -0.004,-0.0159 -0.007,-0.0314 -0.0103,-0.0615 -0.0215,-0.15716 -0.0329,-0.28124 -0.023,-0.24816 -0.0463,-0.61168 -0.0688,-1.08158 -0.0451,-0.93982 -0.0886,-2.30615 -0.13017,-4.05035 -0.0831,-3.4884 -0.15832,-8.48965 -0.22139,-14.63209 -0.12615,-12.28489 -0.2042,-29.13443 -0.2042,-47.58312 l 0,-67.27982 -8.04533,0 c -2.86637,0 -4.82641,-0.0864 -6.04972,-0.28273 -0.61164,-0.0982 -1.03842,-0.22641 -1.29103,-0.36801 -0.25257,-0.14161 -0.32238,-0.26174 -0.32238,-0.41888 0,-0.066 0.12217,-0.38888 0.37922,-0.78987 0.25708,-0.40099 0.63408,-0.90931 1.10103,-1.484 0.93395,-1.14939 2.22658,-2.56735 3.64793,-3.97106 l 5.12971,-5.06536 z m 290.76446,2.56185 0,61.24283 c 0,53.02225 0.19979,61.78781 1.58127,66.71134 0.87482,3.11776 2.93596,7.28718 4.63002,9.34235 1.69398,2.05515 5.29243,4.7532 8.06551,6.05719 3.74091,1.75909 6.41032,2.29477 10.46883,2.10034 l 5.58223,-0.26778 0,-6.05045 0,-6.03027 -5.06089,-0.84821 c -1.33396,-0.22364 -2.75991,-0.61289 -3.97403,-1.05765 -1.21416,-0.44477 -2.22214,-0.95483 -2.69277,-1.37331 -0.97615,-0.86804 -2.53165,-3.16414 -3.38165,-5.0287 -1.29375,-2.83783 -1.59905,-9.36454 -1.88642,-43.81701 l -0.33583,-40.2723 8.47915,-0.27825 8.85244,-0.29096 0,-6.56732 0,-6.56656 -8.77615,-0.28947 -8.40509,-0.27751 0,-13.03066 0,-13.40764 -6.57331,0 z m 103.08666,0 0,61.86515 c 0,53.61878 0.19608,62.36703 1.57676,67.06066 1.16388,3.95646 2.81275,6.57379 6.21723,9.87565 2.54785,2.47103 6.12673,4.96835 8.07899,5.59045 1.91378,0.60982 5.75832,1.13821 8.61381,1.19378 l 5.34961,0.10397 0,-6.44988 0,-6.42295 -4.90153,-0.65 c -2.69794,-0.35789 -5.62321,-1.50335 -6.82765,-2.62543 -1.17988,-1.09925 -2.68691,-3.19703 -3.30161,-4.59039 -0.16789,-0.38057 -0.36309,-1.56487 -0.52057,-3.50281 -0.15751,-1.93795 -0.29531,-4.65474 -0.41514,-8.20615 -0.23969,-7.10283 -0.40717,-17.54685 -0.51911,-31.80959 l -0.32013,-40.79664 8.21062,0 c 3.01041,0 5.12271,-0.0859 6.50825,-0.28573 0.69275,-0.0999 1.20332,-0.22636 1.56554,-0.39718 0.36217,-0.17082 0.59804,-0.41407 0.62382,-0.71956 0.0584,-0.69362 0.17214,-3.22343 0.25505,-5.65478 0.0418,-1.22566 -0.018,-2.47596 -0.14886,-3.51104 -0.13101,-1.03509 -0.30921,-1.83734 -0.60064,-2.25069 -0.18245,-0.25883 -0.50828,-0.44288 -0.9634,-0.60213 -0.45508,-0.15925 -1.04619,-0.28847 -1.77648,-0.39269 -1.46049,-0.20844 -3.47509,-0.31416 -6.01601,-0.31416 l -7.54196,0 0,-13.06207 0,-13.44579 -6.57331,0 z m -102.7037,0.38297 6.19035,0 6.19034,0 0,13.02467 0,13.40092 8.77534,0.28947 8.4059,0.2775 0,6.19631 0,6.19631 -8.48142,0.27901 -8.85316,0.29096 0.33881,40.64554 c 0.28742,34.45416 0.54654,40.95884 1.92086,43.97334 0.87313,1.91527 2.40408,4.20201 3.47586,5.15511 0.55343,0.49209 1.57818,0.99414 2.81543,1.44735 1.23726,0.45323 2.68071,0.84737 4.04212,1.07561 l 4.7415,0.79511 0,5.70564 0,5.68543 -5.21795,0.24983 c -4.01753,0.19247 -6.58277,-0.32221 -10.2878,-2.06444 -2.7033,-1.27118 -6.30424,-3.97792 -7.93239,-5.95322 -1.62823,-1.97529 -3.70047,-6.15093 -4.55675,-9.20247 -1.35185,-4.81812 -1.56704,-13.58686 -1.56704,-66.60812 z m 103.08667,0 6.19031,0 6.19034,0 0,13.06282 0,13.44505 7.92493,0 c 2.53027,0 4.53193,0.1064 5.96144,0.31041 0.71473,0.102 1.28658,0.22919 1.70463,0.37549 0.41809,0.14629 0.67598,0.31724 0.77716,0.46075 0.18448,0.26163 0.40534,1.06661 0.53332,2.07791 0.12799,1.0113 0.18697,2.2462 0.14587,3.45046 -0.0828,2.42843 -0.19826,4.979 -0.25356,5.63532 -0.0111,0.13358 -0.10516,0.2638 -0.40541,0.40541 -0.30029,0.14161 -0.78398,0.26717 -1.45708,0.36427 -1.34625,0.19421 -3.45062,0.28199 -6.45364,0.28199 l -8.59657,0 0.32311,41.1826 c 0.11198,14.26428 0.27918,24.7106 0.51912,31.82006 0.11994,3.55473 0.25823,6.27461 0.41662,8.22336 0.15836,1.94873 0.31913,3.10084 0.55125,3.62698 0.64975,1.47282 2.15435,3.5628 3.39138,4.7153 1.33074,1.23974 4.27298,2.35804 7.03854,2.72491 l 4.56871,0.60587 0,6.08785 0,6.05944 -4.95914,-0.0965 c -2.81429,-0.0548 -6.67346,-0.5921 -8.50535,-1.17584 -1.79341,-0.57146 -5.41732,-3.06504 -7.92792,-5.49994 -3.37659,-3.27481 -4.96771,-5.80264 -6.117,-9.7096 -1.34679,-4.57841 -1.56106,-13.33439 -1.56106,-66.9522 z m -211.93054,25.14354 c -5.36187,0 -7.96835,0.55391 -11.96628,2.54614 -3.04203,1.51593 -6.31021,4.17711 -8.08945,6.59649 -1.6422,2.23305 -3.75286,6.28462 -4.72204,9.06035 -0.78363,2.24437 -1.22393,4.55148 -1.46604,10.48975 -0.24211,5.93827 -0.28948,15.52369 -0.28948,32.36908 0,17.54515 0.0341,27.08702 0.2917,32.85228 0.25751,5.76526 0.74457,7.77453 1.6396,10.18756 1.06558,2.87284 3.23521,6.78758 4.86264,8.76191 1.618,1.96289 4.28239,4.3798 5.98315,5.41691 l 0.29098,0.17728 0,-0.0359 c 1.78525,0.99256 4.60455,1.7013 6.76254,1.66576 l 3.92692,-0.0651 4.02964,0.11622 c 3.88188,0.0716 4.39135,-0.13419 3.99287,-0.11325 0.10933,0.0699 0.21737,-0.0178 0.37431,0.003 0.1569,0.0211 0.20405,-0.0585 0.46366,-0.0436 0.51919,0.0297 1.25618,0.0509 2.22899,0.074 3.02783,0.072 5.35134,-0.62222 7.91294,-2.36289 2.00407,-1.36181 4.85271,-4.30526 6.39156,-6.59649 1.53781,-2.28977 3.43733,-6.35414 4.25003,-9.09101 0.81526,-2.74522 1.46979,-7.96767 1.46979,-11.67232 l 0,-6.8852 -6.43716,0 -6.41921,0 -0.68666,6.79918 c -0.3657,3.6207 -1.55995,8.4512 -2.6202,10.65431 -1.06676,2.2168 -3.14126,4.82676 -4.5111,5.72434 -1.37402,0.90029 -4.41478,1.7193 -6.65109,1.76749 -2.71307,0.0585 -4.99721,-0.58492 -6.79693,-1.90063 -1.47642,-1.07941 -3.60542,-3.73032 -4.65698,-5.82158 -1.47236,-2.92837 -2.00514,-6.30354 -2.27686,-14.58347 l -0.3508,-10.67675 20.59579,-10.23544 20.8112,-10.3424 0,-15.00609 c 0,-12.30696 -0.35727,-16.07526 -2.04949,-21.55395 -1.59326,-5.15845 -3.094,-7.68922 -6.67499,-11.25495 -2.79613,-2.78415 -6.20122,-5.06911 -8.70733,-5.81334 -2.26855,-0.67368 -7.14175,-1.208 -10.90637,-1.208 z m 339.487529,0 c -5.460529,0 -8.503899,0.53657 -11.669329,2.06893 -2.36947,1.14703 -5.75223,3.79858 -7.58755,5.94274 -1.83638,2.14543 -4.1352,6.18966 -5.14989,9.05512 -0.81416,2.29915 -1.2845,4.60915 -1.58799,10.20626 -0.30347,5.59711 -0.44386,14.49604 -0.6006,30.01667 -0.11284,11.17135 -0.10554,20.44413 0.0143,27.38301 0.1197,6.93888 0.34722,11.52704 0.69185,13.39717 0.58626,3.1809 2.20984,8.10938 3.62625,11.00886 1.59384,3.26273 4.08805,6.3656 6.57929,8.17024 3.12066,2.2606 5.04286,2.88934 8.60034,2.81018 1.00668,-0.0224 1.84119,0.0575 2.387164,0.0263 l 11.742297,0.008 c 2.092887,0.0368 5.006509,-0.56796 6.572548,-1.37779 1.562455,-0.80797 4.135009,-2.97959 5.796892,-4.87238 1.674903,-1.90763 3.894994,-5.79248 4.980077,-8.69982 1.097152,-2.93963 2.123379,-8.55165 2.321759,-12.65592 l 0.365008,-7.55541 -6.819368,-0.29844 -6.826872,-0.2992 0,3.63223 c 0,1.85418 -0.499016,5.74033 -1.107791,8.57864 -0.769188,3.58675 -2.058727,6.0889 -4.267982,8.29816 -1.379979,1.37999 -2.327386,2.15915 -3.445958,2.6 -1.118627,0.44083 -2.43471,0.552 -4.558257,0.552 -2.067743,0 -3.391526,-0.11592 -4.488649,-0.52134 -1.097128,-0.40542 -1.988758,-1.10467 -3.197628,-2.31352 -1.57309,-1.5731 -3.34278,-4.79708 -3.95236,-7.21806 -0.34485,-1.36948 -0.63196,-5.42282 -0.81906,-11.77853 -0.18704,-6.35571 -0.28389,-15.04155 -0.28199,-25.78307 0,-10.13597 0.10408,-18.79585 0.28499,-25.20488 0.0904,-3.20451 0.2007,-5.846 0.32762,-7.82692 0.12693,-1.98091 0.27673,-3.3163 0.42261,-3.84165 0.55759,-2.008 2.21357,-5.00868 3.63448,-6.58452 1.5899,-1.76329 3.927782,-3.08843 6.010056,-3.41904 2.055115,-0.32631 4.830557,0.041 6.948756,0.92601 2.117975,0.88493 4.186502,2.74037 5.217237,4.67341 0.924839,1.73443 2.199119,6.53599 2.777234,10.56829 l 1.078644,7.5195 6.138688,0.29695 c 2.321674,0.11223 3.855597,0.10341 4.891849,-0.0868 0.518111,-0.0951 0.914647,-0.23617 1.218447,-0.44131 0.3038,-0.20513 0.508592,-0.47755 0.631316,-0.79735 0.09988,-0.26029 0.140896,-0.67281 0.164556,-1.25362 0.0238,-0.58083 0.02016,-1.31663 -0.0081,-2.16019 -0.05732,-1.68712 -0.21546,-3.8042 -0.460012,-5.94873 -0.489664,-4.29342 -1.542071,-9.36783 -2.377087,-11.36639 -0.823507,-1.97082 -2.649582,-5.08261 -4.085505,-6.96524 -1.458351,-1.91196 -4.880285,-4.55454 -7.673591,-5.94649 -4.054146,-2.02026 -6.536624,-2.52221 -12.458481,-2.52221 z m 65.171248,0.015 c -3.795846,-0.002 -8.579503,0.46282 -10.708173,1.05391 -2.148299,0.5965 -5.730729,2.81613 -8.067019,4.96962 -2.341891,2.15872 -5.198253,6.14361 -6.396008,8.92796 -1.199352,2.78793 -2.559815,8.84308 -3.053287,13.53181 -0.494647,4.69966 -0.899191,19.33025 -0.905071,32.56355 -0.0053,13.23362 0.4193,27.79536 0.950683,32.4177 0.683536,5.94609 1.849455,10.17713 4.028666,14.60368 2.051447,4.16707 4.395269,7.19917 7.094664,9.1546 3.136726,2.27225 5.054585,2.90065 8.616014,2.82139 l 10.400006,0.0142 3.239486,0.0434 c 1.831283,0.0244 4.419517,-0.42508 6.05606,-1.27136 1.295503,-0.66994 2.212335,-1.19101 2.504683,-1.19101 0.07308,0 0.110824,0.0141 0.136864,0.0314 0.02604,0.0173 0.04936,0.0432 0.0733,0.10172 0.04791,0.11701 0.0733,0.35439 0.0733,0.68291 0,0.32365 0.09142,0.62106 0.3052,0.85346 0.213724,0.23239 0.531468,0.39513 0.96488,0.51536 0.866851,0.24045 2.223142,0.5082 4.321125,0.5082 0,0 2.8050103,-0.0155 3.8087257,-0.0534 1.4431751,0.0432 1.689799,-0.0937 1.8999108,-1.41673 l 0,-0.003 0,-8.4e-4 0.0056,-93.6203 -0.030632,-2.1362 c 0,0 -0.7140555,-6.62576 -1.7021189,-8.58004 -0.8832595,-1.74708 -2.7076823,-4.64087 -4.0750056,-6.46634 -1.397843,-1.86619 -4.768789,-4.39235 -7.565119,-5.69441 -3.801978,-1.77028 -6.788652,-2.35871 -11.976769,-2.36139 z m -524.216807,0.007 c -5.61234,0.0153 -9.0967,0.5535 -11.91466,1.86099 -2.19674,1.01922 -5.37294,3.32721 -7.12532,5.17456 -1.75347,1.84851 -4.0633,5.37118 -5.17533,7.88901 -1.11463,2.52371 -2.44962,7.59929 -2.99045,11.34096 -0.27562,1.90692 -0.517,8.38763 -0.69784,17.37122 -0.18084,8.9836 -0.29607,20.44307 -0.30144,32.21126 -0.005,11.76781 0.0637,22.53975 0.17877,30.41534 0.0576,3.9378 0.12611,7.15098 0.20343,9.40443 0.0387,1.12672 0.0794,2.01303 0.12194,2.63216 0.0215,0.30956 0.043,0.55202 0.0658,0.72779 0.0115,0.0879 0.023,0.15891 0.0368,0.21766 0.0134,0.0588 -0.004,0.095 0.0845,0.18176 0.0885,0.0885 0.19398,0.13056 0.33135,0.17727 0.13737,0.0467 0.30622,0.0892 0.50712,0.12941 0.40182,0.0803 0.92989,0.15121 1.55206,0.21093 1.24442,0.11942 2.86392,0.19298 4.56499,0.19298 l 6.35563,0 0.29918,-47.06999 c 0.14495,-22.80926 0.23345,-34.56122 0.54304,-41.15792 0.3096,-6.59669 0.82703,-8.00092 1.85426,-10.22346 1.14933,-2.48667 3.35615,-5.35779 4.79684,-6.30178 1.6316,-1.06907 4.46779,-1.76974 7.27116,-1.76974 3.55218,0 5.1281,0.53153 7.15749,2.40403 1.43238,1.32164 3.34883,3.97523 4.20814,5.83055 1.33074,2.873 1.64067,9.79728 2.06447,50.48305 l 0.49292,47.30635 6.859,0.29919 6.87923,0.3007 -0.29768,-49.09105 c -0.14431,-23.80422 -0.23208,-36.05926 -0.54454,-43.00768 -0.31247,-6.94843 -0.86038,-8.62217 -1.90286,-11.16519 -1.18272,-2.88514 -3.26362,-6.70135 -4.66073,-8.53302 -1.41342,-1.85313 -4.84463,-4.46685 -7.69526,-5.8874 -4.28071,-2.13315 -6.53651,-2.57243 -13.12192,-2.55437 z m 187.46692,0.0209 c -5.53115,0 -9.0643,0.53431 -11.86081,1.81162 -2.19594,1.00302 -5.37738,3.26591 -7.13578,5.07359 -1.75752,1.80675 -4.05866,5.14573 -5.15514,7.47836 -1.09893,2.33791 -2.4348,7.01556 -2.99344,10.45833 -0.14982,0.92319 -0.2837,2.91274 -0.40614,5.79689 -0.12247,2.88416 -0.23116,6.65457 -0.32165,11.10161 -0.18099,8.89408 -0.2898,20.49563 -0.29171,33.12529 -0.004,12.03778 0.0697,23.05447 0.187,31.10798 0.0586,4.02676 0.12849,7.31285 0.20646,9.61611 0.0389,1.15162 0.08,2.05682 0.12267,2.689 0.0214,0.31609 0.043,0.56373 0.0658,0.74275 0.0115,0.0895 0.0233,0.16116 0.0368,0.22066 0.007,0.0298 0.013,0.0563 0.0233,0.0838 0.01,0.0274 0.0173,0.056 0.0613,0.10023 0.0886,0.0886 0.19379,0.13057 0.33139,0.17727 0.13756,0.0467 0.30729,0.0892 0.50862,0.12941 0.40261,0.0803 0.93138,0.15122 1.55504,0.21093 1.24737,0.11942 2.87142,0.19298 4.57693,0.19298 l 6.37211,0 0.28274,-47.06999 c 0.13753,-22.90425 0.22009,-34.65202 0.52957,-41.22972 0.30944,-6.57771 0.83242,-7.94802 1.8767,-10.20851 1.28842,-2.78912 3.39689,-5.36372 5.32564,-6.53964 1.7558,-1.07048 4.55335,-1.95823 6.10284,-1.95823 1.55182,0 4.30047,0.85898 5.9966,1.89315 1.67457,1.02104 4.11346,3.77953 5.33088,6.05944 0.56025,1.04918 0.96861,1.82106 1.28429,3.14453 0.31568,1.32347 0.536,3.20355 0.69489,6.43492 0.31775,6.46273 0.39193,18.32122 0.53631,41.95676 l 0.29095,47.61378 6.78126,-0.2977 6.76476,-0.29769 0.2708,-43.87087 c 0.0842,-13.67533 0.0538,-25.23609 -0.0793,-33.91291 -0.13312,-8.67684 -0.36531,-14.45316 -0.69784,-16.62474 -0.57686,-3.76697 -1.83557,-8.62313 -2.82439,-10.85851 -0.9878,-2.23307 -3.27914,-5.52384 -5.1342,-7.37888 -1.85422,-1.85424 -5.12435,-4.15727 -7.33251,-5.16035 -2.80789,-1.27554 -6.35889,-1.81162 -11.88248,-1.81162 z m 208.78599,0.0224 c -1.16138,-0.0173 -2.43454,0.009 -3.85661,0.0733 -6.5738,0.29882 -8.57432,0.82985 -12.67837,3.36144 -3.26156,2.01197 -5.92215,4.75709 -8.04384,8.29517 -1.74691,2.91315 -3.64954,7.61169 -4.25153,10.51144 -0.36504,1.75829 -0.6003,6.13541 -0.7248,13.07479 -0.12455,6.93938 -0.13289,16.42187 -0.0218,28.315 0.29392,31.44405 0.55492,36.74891 2.05918,40.68668 0.95187,2.49165 3.10756,6.1851 4.82525,8.26899 1.71276,2.07781 4.4537,4.5901 6.15669,5.62859 1.71566,1.04622 4.84167,1.85902 7.05202,1.84303 l 3.92694,-0.0277 c 0,0 5.2202,-0.0902 6.86948,0 l 3.73019,0.0314 c 2.09124,0.018 4.95983,-0.58616 6.47234,-1.37854 1.50273,-0.78727 4.09861,-2.88354 5.84102,-4.70034 1.75618,-1.83116 4.15139,-5.51052 5.36981,-8.23757 1.5529,-3.47578 2.33816,-7.52366 2.64185,-13.56846 l 0.44131,-8.79108 -6.50745,0 -6.47231,0 -1.05316,7.31381 c -0.56403,3.9149 -1.84377,8.8453 -2.80798,10.8772 -1.31208,2.76504 -2.86787,4.20626 -6.09008,5.63159 -3.71871,1.64496 -4.83386,1.76099 -7.9653,0.82278 -1.98421,-0.59447 -4.77301,-2.42536 -6.10506,-4.00845 -1.34164,-1.59438 -2.91878,-4.57191 -3.46467,-6.5374 -0.26953,-0.97048 -0.52708,-2.95035 -0.71132,-5.32266 -0.18429,-2.37232 -0.29956,-5.14606 -0.30147,-7.7439 l -0.006,-9.34758 20.6033,-10.09107 20.82017,-10.19804 -0.36279,-16.83716 c -0.17187,-7.97463 -0.29381,-12.22615 -0.71283,-15.23647 -0.41899,-3.01032 -1.14004,-4.7743 -2.48852,-7.71696 -1.56436,-3.41362 -4.25536,-7.44044 -6.05945,-9.02446 -1.7836,-1.56601 -5.21847,-3.58679 -7.69751,-4.53353 -2.46587,-0.94172 -4.94261,-1.38198 -8.42681,-1.43389 z m -107.22227,0.086 c -6.27188,0.28511 -8.338,0.84345 -12.39934,3.34873 -3.21047,1.98044 -5.92066,4.75379 -7.94362,8.12687 -1.69364,2.8239 -3.57038,7.62723 -4.19619,10.74332 -0.36351,1.81008 -0.64005,6.20756 -0.83253,12.75764 -0.19244,6.55009 -0.29542,15.23655 -0.29542,25.55868 0,10.22906 0.10275,18.88595 0.29243,25.39486 0.18969,6.5089 0.45972,10.84906 0.8153,12.52502 0.61237,2.88595 2.11598,7.21133 3.36147,9.66697 1.24507,2.45486 3.5024,5.5958 5.07285,7.04079 1.54608,1.42259 3.67565,3.0625 4.79235,3.67859 l 0.2842,0.15707 0,-0.0456 c 0.58272,0.26607 1.37375,0.49651 2.31505,0.66347 1.0792,0.19141 2.29149,0.3047 3.38613,0.29395 l 3.92692,-0.0389 c 3.01232,-0.0137 6.04669,0.15998 9.06131,0.0699 0.54063,0.0309 1.98967,-0.0557 2.27514,-0.0333 3.55184,0.27932 5.42536,-0.5525 8.67738,-2.94406 2.7553,-2.02627 5.13749,-5.08714 7.13953,-9.15385 2.11828,-4.30281 3.29127,-8.58774 3.96882,-14.48175 0.53137,-4.62234 0.9557,-19.18408 0.94996,-32.41771 -0.005,-13.23331 -0.40971,-27.8639 -0.90435,-32.56355 -0.49349,-4.68873 -1.85391,-10.74385 -3.05326,-13.53181 -1.19788,-2.78448 -4.0608,-6.77505 -6.41024,-8.94068 -2.45115,-2.25935 -6.03658,-4.40023 -8.52331,-5.06985 -2.37674,-0.63997 -7.63038,-0.99259 -11.76058,-0.80483 z m -169.47261,0.23188 c 3.72782,0 8.6207,0.54596 10.79719,1.19229 2.39007,0.70977 5.78677,2.9697 8.54648,5.7176 3.55514,3.53999 4.99468,5.96842 6.57852,11.09637 1.68215,5.44615 2.03303,9.1414 2.03303,21.44101 l 0,14.76823 -20.59878,10.23768 -20.81568,10.34464 0.35826,10.92209 c 0.27214,8.29293 0.80841,11.74263 2.31727,14.74355 1.08553,2.15885 3.20039,4.80899 4.77367,5.9592 1.87647,1.37184 4.2526,2.03386 7.03103,1.97393 2.31968,-0.05 5.35536,-0.84949 6.85231,-1.83032 1.50104,-0.98354 3.54759,-3.59486 4.64648,-5.87842 1.10555,-2.29724 2.28552,-7.11322 2.65612,-10.78221 l 0.65223,-6.45437 6.07289,0 6.0542,0 0,6.50224 c 0,3.65902 -0.66089,8.89295 -1.45409,11.56386 -0.79558,2.67925 -2.69882,6.74935 -4.20067,8.98555 -1.5009,2.23475 -4.35891,5.18168 -6.28908,6.49327 -2.51242,1.70725 -4.72292,2.3676 -7.68855,2.29706 -0.97179,-0.0231 -1.70655,-0.0442 -2.21551,-0.0733 0,0 -4.75674,0.16106 -10.09632,0.0569 l -2.72042,0.0449 c -2.17135,0.0358 -5.1893,-0.73968 -6.84782,-1.75104 -1.62525,-0.99106 -4.30235,-3.41186 -5.88665,-5.33388 -1.57489,-1.91057 -3.75325,-5.83164 -4.79906,-8.65121 -0.88688,-2.39103 -1.35893,-4.3237 -1.61567,-10.07163 -0.25674,-5.74793 -0.29171,-15.29043 -0.29171,-32.83507 0,-16.84468 0.048,-26.4306 0.28949,-32.35412 0.2415,-5.92353 0.67353,-8.16928 1.44509,-10.37905 0.95019,-2.72122 3.0654,-6.77812 4.66893,-8.95862 1.72554,-2.34632 4.97181,-4.99665 7.95108,-6.4813 3.96441,-1.97554 6.45976,-2.50575 11.79574,-2.50576 z m 339.487529,0 c 5.900633,0 8.266295,0.47851 12.287905,2.48256 2.730642,1.36073 6.154956,4.02029 7.539695,5.83579 1.407139,1.84486 3.235342,4.96342 4.036142,6.87998 0.789179,1.8888 1.86449,6.99726 2.350934,11.26241 0.243432,2.13476 0.400148,4.24394 0.456988,5.91806 0.02834,0.83707 0.03217,1.56572 0.009,2.13177 -0.02296,0.56603 -0.08235,0.98248 -0.13986,1.13244 -0.09909,0.25814 -0.245196,0.45335 -0.487676,0.61709 -0.242536,0.16375 -0.587803,0.29235 -1.073379,0.38147 -0.971236,0.17825 -2.492055,0.19331 -4.804321,0.0815 l -5.823073,-0.28198 -1.033703,-7.20685 c -0.583184,-4.06735 -1.826355,-8.83345 -2.818422,-10.69395 -1.082284,-2.02975 -3.197346,-3.92254 -5.407945,-4.8462 -2.192231,-0.91596 -5.006201,-1.29289 -7.15674,-0.95143 -2.193658,0.3483 -4.584044,1.7106 -6.234444,3.54096 -1.48229,1.64396 -3.13525,4.6392 -3.71821,6.7386 -0.17085,0.61509 -0.30872,1.93097 -0.4361,3.91945 -0.1274,1.98848 -0.2378,4.63379 -0.32835,7.84113 -0.1811,6.41468 -0.2833,15.07684 -0.28498,25.21535 0,10.74386 0.0947,19.4322 0.28196,25.79428 0.18726,6.36209 0.45592,10.37125 0.83103,11.86081 0.6323,2.51116 2.39787,5.74061 4.05258,7.39534 1.22341,1.22336 2.16762,1.97001 3.336004,2.40178 3.074006,0.62625 6.415524,1.07193 9.319934,-0.0329 1.193248,-0.47026 2.185175,-1.29509 3.57613,-2.68602 2.259207,-2.2592 3.591894,-4.85162 4.371973,-8.48889 0.614684,-2.86604 1.115968,-6.73683 1.115968,-8.65868 l 0,-3.23205 6.42748,0.28124 6.4349,0.282 -0.347088,7.17093 c -0.196084,4.057 -1.229479,9.67828 -2.297819,12.54073 -1.064027,2.85093 -3.293722,6.74204 -4.908285,8.58089 -1.627555,1.85371 -4.221949,4.02807 -5.685424,4.78487 -1.459863,0.75493 -4.379477,1.37131 -6.390016,1.3359 l -2.546179,-0.0449 -9.224594,0.0368 c -0.535894,0.0306 -1.369084,-0.0494 -2.374424,-0.027 -3.51098,0.0781 -5.27758,-0.49949 -8.3662,-2.73688 -2.42021,-1.75319 -4.89381,-4.82207 -6.46038,-8.02888 -1.39168,-2.84891 -3.01722,-7.78356 -3.59332,-10.90937 -0.32956,-1.7884 -0.56625,-6.40183 -0.68589,-13.33509 -0.11962,-6.93326 -0.12704,-16.20349 -0.0143,-27.37254 0.15677,-15.5198 0.29725,-24.41792 0.59987,-29.99947 0.30265,-5.58153 0.7642,-7.83212 1.56702,-10.09929 0.99151,-2.79991 3.29591,-6.85008 5.07959,-8.93395 1.7848,-2.08509 5.17496,-4.73918 7.46342,-5.847 3.11074,-1.50589 6.06687,-2.03078 11.502507,-2.03078 z m 56.723485,119.29326 c -3.514978,0.0782 -5.278388,-0.49957 -8.383419,-2.74885 -2.632306,-1.90682 -4.942052,-4.88458 -6.974963,-9.01397 -2.160451,-4.38849 -3.312482,-8.56045 -3.99277,-14.47802 -0.523515,-4.5542 -0.953147,-19.1483 -0.947687,-32.37356 0.0056,-13.22559 0.414652,-27.88456 0.902803,-32.52317 0.489412,-4.6495 1.863315,-10.72272 3.02411,-13.42111 1.162392,-2.70198 4.021582,-6.69388 6.304057,-8.79781 2.28813,-2.1091 5.89534,-4.32273 7.909967,-4.8821 2.034198,-0.56486 6.841067,-1.04197 10.604937,-1.0397 5.159529,0.003 8.053663,0.5737 11.815909,2.32549 2.72983,1.2711 6.101812,3.81709 7.420023,5.57699 1.3487035,1.80062 3.5633341,5.42568 4.3307576,7.5217 0.2229639,1.17888 1.1830833,5.38889 1.1324873,8.65342 l 0.1823359,10.30638 0.00644,15.77492 c 0,0 -0.2470158,44.79868 -0.1728439,50.7736 l 0.1158919,17.28805 c -0.4499877,0.98931 -0.5467276,1.25088 -1.4011191,1.29358 -0.9455874,0.0358 -2.2427706,0.0356 -3.7424777,0.0356 -2.087735,0 -3.48331,-0.25943 -4.269941,-0.47764 -0.393316,-0.1091 -0.640668,-0.2481 -0.7854,-0.40541 -0.144704,-0.15731 -0.204204,-0.337 -0.204204,-0.5939 0,-0.34279 -0.01232,-0.60936 -0.101724,-0.82802 -0.04477,-0.10933 -0.115724,-0.20936 -0.216132,-0.27601 -0.100463,-0.0666 -0.221871,-0.095 -0.348599,-0.095 -0.5068,0 -1.111908,0.37995 -2.412759,1.05266 -1.549687,0.80137 -5.519692,1.36294 -7.251911,1.3399 M -554.21957,509.57287 c 6.5686,-0.018 8.69772,0.39507 12.94985,2.51398 2.79135,1.39099 6.22643,4.02621 7.56215,5.77744 1.35214,1.77274 3.44292,5.59708 4.61059,8.44551 1.03827,2.53271 1.56275,4.10584 1.87444,11.03728 0.3117,6.93144 0.40024,19.18865 0.54455,42.99272 l 0.29469,48.68864 -6.4768,-0.28275 -6.49626,-0.28348 -0.48917,-46.94433 c -0.42383,-40.68711 -0.68284,-47.57895 -2.10035,-50.63938 -0.89136,-1.9245 -2.80196,-4.57273 -4.29569,-5.95098 -2.07745,-1.91684 -3.82486,-2.50575 -7.41703,-2.50575 -2.86617,0 -5.74552,0.69521 -7.48137,1.83257 -1.58269,1.03705 -3.75489,3.90907 -4.93443,6.4611 -1.03295,2.23486 -1.57826,3.75181 -1.88869,10.36633 -0.3104,6.61453 -0.39882,18.36421 -0.54378,41.17362 l -0.29695,46.68927 -5.97489,0 c -1.68996,0 -3.3005,-0.0737 -4.5283,-0.19148 -0.61393,-0.0589 -1.13309,-0.12881 -1.51395,-0.20495 -0.19041,-0.0381 -0.34662,-0.0776 -0.45925,-0.11594 -0.11263,-0.0383 -0.18172,-0.0845 -0.18325,-0.086 0.0642,0.0642 0.0268,0.0408 0.018,0.003 -0.009,-0.0378 -0.0195,-0.10019 -0.0299,-0.181 -0.0211,-0.16164 -0.0426,-0.3992 -0.0636,-0.70461 -0.0419,-0.61082 -0.0826,-1.4943 -0.12117,-2.6187 -0.0772,-2.24879 -0.14592,-5.46133 -0.20344,-9.39769 -0.11508,-7.87272 -0.18413,-18.6424 -0.17877,-30.40861 1.33637,-11.37545 -1.15733,-33.153 0.99557,-49.52863 0.53501,-3.70144 1.87873,-8.78807 2.96203,-11.24072 1.08583,-2.45852 3.40095,-5.98656 5.10199,-7.7798 1.70214,-1.79439 4.88622,-4.10572 7.00939,-5.09079 2.74505,-1.27367 6.16557,-1.8106 11.75385,-1.82583 z m 187.46616,0.0209 c 5.49881,0 8.99003,0.53529 11.72393,1.77721 2.13563,0.97014 5.41388,3.27614 7.2203,5.08257 1.80566,1.80562 4.09995,5.10412 5.05488,7.26294 0.95394,2.15646 2.22436,7.02922 2.79598,10.76201 0.32104,2.09638 0.56032,7.89912 0.69337,16.57163 0.13308,8.6725 0.16356,20.23126 0.0793,33.90469 l -0.26854,43.50734 -6.40052,0.28124 -6.38481,0.2805 -0.28796,-47.21585 c -0.14438,-23.63556 -0.21833,-35.49049 -0.53707,-41.97322 -0.15936,-3.24137 -0.37929,-5.14142 -0.70459,-6.50523 -0.32529,-1.36383 -0.75805,-2.18581 -1.31871,-3.23579 -1.25603,-2.35226 -3.6775,-5.11356 -5.46926,-6.20603 -1.77023,-1.07935 -4.50823,-1.94926 -6.19631,-1.94926 -1.69035,0 -4.47507,0.90016 -6.30256,2.01433 -2.03345,1.23976 -4.15662,3.85522 -5.47373,6.70644 -1.04903,2.27078 -1.60081,3.75476 -1.91113,10.35062 -0.31028,6.59587 -0.39277,18.34105 -0.5303,41.24543 l -0.28048,46.68927 -5.9914,0 c -1.69444,0 -3.30946,-0.0736 -4.54024,-0.19148 -0.61543,-0.0589 -1.13523,-0.1288 -1.51694,-0.20495 -0.19083,-0.0381 -0.34716,-0.0776 -0.46002,-0.11594 -0.10053,-0.0341 -0.14959,-0.0677 -0.1638,-0.077 0,-0.003 0,-0.003 -0.004,-0.007 -0.009,-0.0387 -0.0195,-0.10219 -0.0299,-0.18475 -0.0211,-0.16512 -0.0425,-0.40755 -0.0636,-0.71957 -0.0421,-0.62403 -0.083,-1.52769 -0.1219,-2.67704 -0.0778,-2.29869 -0.14782,-5.58252 -0.20645,-9.60787 -0.11727,-8.0507 -0.18904,-19.06653 -0.18701,-31.10274 0.004,-12.62751 0.11079,-24.2274 0.29171,-33.11782 0.0905,-4.44521 0.19864,-8.21302 0.32089,-11.09262 0.12228,-2.87962 0.26019,-4.88013 0.40166,-5.75202 0.55189,-3.40117 1.89638,-8.08952 2.96203,-10.35661 1.06817,-2.2724 3.37441,-5.61761 5.08333,-7.37439 1.70797,-1.75585 4.89672,-4.0227 7.02058,-4.9928 2.72226,-1.24339 6.19502,-1.77647 11.7015,-1.77647 z m 208.77776,0.0217 c 3.451,0.0502 5.87557,0.48373 8.29888,1.4092 2.41856,0.92365 5.85942,2.95191 7.58159,4.46398 1.7017,1.49407 4.42089,5.53143 5.96293,8.89654 1.34604,2.93721 2.04431,4.63785 2.45789,7.60926 0.41362,2.97142 0.53724,7.2187 0.70913,15.19234 l 0.35753,16.59257 -20.60031,10.09032 -20.81791,10.19655 0.006,9.58618 c 0,2.60897 0.11785,5.39008 0.30293,7.77307 0.1851,2.38298 0.4351,4.3583 0.72332,5.39596 0.56959,2.05082 2.14527,5.02226 3.54168,6.68176 1.40588,1.67081 4.19378,3.50158 6.28759,4.12888 3.16638,0.94869 4.48969,0.81457 8.23007,-0.83999 3.26911,-1.44607 4.93981,-2.99111 6.28084,-5.81708 1.00985,-2.12814 2.27251,-7.03686 2.84161,-10.98717 l 1.00604,-6.98543 6.14022,0 6.10428,0 -0.42109,8.38941 c -0.30249,6.02035 -1.08086,10.01223 -2.60823,13.43083 -1.19414,2.67272 -3.59889,6.35826 -5.29726,8.12911 -1.71206,1.78517 -4.32877,3.88576 -5.74226,4.62629 -1.40373,0.7354 -4.2791,1.3517 -6.29129,1.33441 l -11.72172,-0.0232 -2.81092,0.0202 c -2.1112,0.0153 -5.23774,-0.80494 -6.84931,-1.78769 -1.62295,-0.98968 -4.38002,-3.50557 -6.06094,-5.54482 -1.67588,-2.03316 -3.83463,-5.73414 -4.76241,-8.16276 -1.46846,-3.844 -1.74059,-9.11126 -2.03452,-40.55355 -0.11118,-11.89105 -0.10271,-21.37111 0.0218,-28.30452 0.12442,-6.93341 0.37102,-11.33935 0.71657,-13.00373 0.58591,-2.82217 2.48892,-7.53055 4.20519,-10.39252 2.09403,-3.49198 4.70753,-6.18661 7.91592,-8.16576 4.07789,-2.51547 5.9377,-3.00652 12.49508,-3.3046 1.41637,-0.0644 2.68085,-0.0908 3.83118,-0.074 z m -107.19681,0.0868 c 4.09313,-0.18609 9.37109,0.17958 11.64313,0.79137 2.37624,0.63985 5.96182,2.76737 8.36399,4.98158 2.29016,2.11101 5.15515,6.10868 6.31749,8.81052 1.16082,2.69842 2.53549,8.77161 3.02484,13.42111 0.48821,4.63862 0.89661,19.29758 0.90208,32.52317 0.006,13.22525 -0.42417,27.81935 -0.94773,32.37356 -0.67421,5.8652 -1.83354,10.09329 -3.93213,14.35609 -1.98251,4.02702 -4.33103,7.03514 -7.02284,9.01473 -3.22291,2.37016 -4.92643,2.94905 -8.44178,2.87002 -0.9974,-0.0224 -1.75526,-0.0444 -2.28582,-0.0748 0,0 -7.98885,0.0112 -10.2968,0.0501 l -2.69273,0.0269 c -1.06531,0.0104 -2.25895,-0.10064 -3.3151,-0.28797 -1.05611,-0.18733 -1.98121,-0.45682 -2.48179,-0.73302 -1.04324,-0.57557 -3.193,-2.222 -4.71756,-3.62475 -1.50016,-1.38032 -3.77155,-4.52739 -4.9913,-6.93232 -1.21938,-2.40416 -2.72583,-6.73726 -3.32777,-9.57422 -0.33541,-1.58082 -0.61758,-5.95314 -0.80711,-12.45621 -0.18949,-6.50307 -0.29243,-15.15715 -0.29243,-25.38364 0,-10.31957 0.10313,-19.00328 0.29542,-25.54745 0.19232,-6.54418 0.47802,-10.96543 0.82503,-12.69332 0.61152,-3.04483 2.49021,-7.85617 4.14908,-10.62214 1.99301,-3.32313 4.66,-6.05035 7.81646,-7.99747 4.03439,-2.48866 5.96164,-3.00761 12.21537,-3.29188 z m -249.98059,0.44729 c -2.02077,0 -3.39563,0.0953 -4.35025,0.35604 -0.95467,0.2607 -1.50343,0.71806 -1.76005,1.38677 -0.0299,0.0778 -0.0295,0.13472 -0.0314,0.21691 -0.004,0.0822 0,0.18222 0.008,0.30369 0.0142,0.24293 0.0452,0.5699 0.0928,0.97985 0.095,0.81992 0.25513,1.97093 0.47423,3.41756 0.43811,2.89324 1.11179,6.96858 1.96945,11.92962 1.71528,9.92207 4.16655,23.38369 6.93978,37.99094 5.54623,29.21289 10.51172,55.19797 11.04252,57.7804 l 0.99035,4.81628 5.88363,0 5.88293,0 1.02996,-4.81478 c 0.55335,-2.5873 5.69076,-28.85816 11.42625,-58.42592 2.86786,-14.78452 5.40699,-28.33461 7.18813,-38.25647 0.89056,-4.96093 1.59158,-9.01519 2.0495,-11.86381 0.22894,-1.42431 0.39725,-2.54665 0.49813,-3.33302 0.0505,-0.39318 0.0842,-0.70159 0.10026,-0.92526 0.008,-0.11183 0.0119,-0.20201 0.0103,-0.27526 0,-0.0366 -0.004,-0.0695 -0.008,-0.10172 -0.005,-0.0323 -0.006,-0.0626 -0.0389,-0.11594 -0.14258,-0.23071 -0.41679,-0.33943 -0.80182,-0.46076 -0.38508,-0.12133 -0.88792,-0.22709 -1.4803,-0.3164 -1.18474,-0.17861 -2.72539,-0.28872 -4.34654,-0.28872 -1.92997,0 -3.44545,0.10714 -4.53278,0.32163 -0.54366,0.10725 -0.98024,0.24116 -1.31346,0.40915 -0.33326,0.16799 -0.57296,0.37498 -0.67617,0.64402 -0.0287,0.0747 -0.0529,0.1755 -0.0942,0.3508 -0.0414,0.17531 -0.0938,0.41253 -0.15782,0.70984 -0.12814,0.59462 -0.30098,1.4283 -0.51314,2.47509 -0.42433,2.09358 -1.00652,5.03907 -1.70467,8.62053 -1.39623,7.16292 -3.25635,16.87027 -5.24261,27.39348 -1.986,10.52183 -3.85313,19.92139 -5.26134,26.5879 -0.70409,3.33325 -1.2934,5.98369 -1.72486,7.74689 -0.21572,0.8816 -0.39261,1.54262 -0.52209,1.95 -0.004,0.0109 -0.005,0.0111 -0.008,0.0217 -0.036,-0.15892 -0.0739,-0.32935 -0.1234,-0.56548 -0.12304,-0.58658 -0.28703,-1.4049 -0.48621,-2.42721 -0.39833,-2.04462 -0.93897,-4.90631 -1.58274,-8.37594 -1.2875,-6.93928 -2.98757,-16.30889 -4.79009,-26.43307 -1.80279,-10.12563 -3.55295,-19.46851 -4.921,-26.36575 -0.68402,-3.44862 -1.27295,-6.28586 -1.72485,-8.30489 -0.22595,-1.00951 -0.41747,-1.81387 -0.5707,-2.39056 -0.0766,-0.28835 -0.14342,-0.51959 -0.20121,-0.69338 -0.0578,-0.17379 -0.0866,-0.276 -0.16755,-0.37624 -0.18149,-0.22473 -0.47978,-0.39383 -0.87367,-0.54827 -0.39384,-0.15445 -0.88569,-0.28798 -1.45405,-0.39868 -1.13677,-0.22139 -2.57945,-0.35155 -4.12293,-0.35155 z m 0,0.38297 c 1.52188,0 2.94503,0.12969 4.04959,0.34482 0.55231,0.10756 1.02524,0.23715 1.38753,0.37923 0.36229,0.14208 0.6113,0.30287 0.71581,0.43233 -0.0126,-0.0159 0.0482,0.0948 0.10176,0.25582 0.0535,0.16102 0.11902,0.38702 0.19446,0.67094 0.15085,0.56784 0.34238,1.36958 0.56772,2.37635 0.45067,2.01354 1.03819,4.84833 1.72186,8.29516 1.36731,6.89365 3.11783,16.23548 4.92023,26.35901 1.80267,10.12497 3.50313,19.49472 4.79086,26.43532 0.64389,3.4703 1.18475,6.33305 1.5835,8.37968 0.19934,1.02332 0.36321,1.84263 0.48695,2.43245 0.0618,0.29491 0.11339,0.53262 0.15483,0.71059 0.0414,0.17796 0.0686,0.28747 0.0972,0.36427 0.0119,0.0322 0.028,0.0764 0.089,0.11743 0.20741,0.0837 0.2333,-0.0556 0.35306,-0.14362 0.0558,-0.10595 0.10968,-0.25487 0.17727,-0.46748 0.13511,-0.42524 0.31212,-1.08992 0.52881,-1.97543 0.4334,-1.77104 1.02329,-4.42274 1.72784,-7.75811 1.40909,-6.67075 3.27717,-16.07216 5.26359,-26.59613 1.98616,-10.52258 3.84513,-20.22941 5.24112,-27.39123 0.698,-3.58092 1.28069,-6.52566 1.70467,-8.61755 0.21202,-1.04594 0.38412,-1.87878 0.51161,-2.4706 0.0638,-0.29591 0.11673,-0.53203 0.15709,-0.7031 0.0404,-0.17108 0.0742,-0.29009 0.0786,-0.30144 0.0542,-0.14133 0.20581,-0.29547 0.49066,-0.43907 0.28485,-0.1436 0.69329,-0.27172 1.21547,-0.37474 1.04443,-0.20603 2.54306,-0.3149 4.45875,-0.3149 1.60379,0 3.13054,0.10948 4.28971,0.28423 0.57958,0.0874 1.06744,0.19199 1.42192,0.30369 0.34639,0.10915 0.54719,0.24814 0.57817,0.28947 0,0.01 0.004,0.0151 0.004,0.0299 0,0.0532 -0.004,0.13562 -0.01,0.24085 -0.0149,0.21047 -0.048,0.51496 -0.098,0.90431 -0.0999,0.77872 -0.26735,1.89888 -0.49594,3.32106 -0.45719,2.84435 -1.15841,6.8967 -2.04873,11.85632 -1.78065,9.91924 -4.31981,23.46817 -7.1874,38.25124 -5.73542,29.56742 -10.88095,55.8767 -11.42473,58.41918 l -0.96489,4.51185 -5.57326,0 -5.57174,0 -0.92674,-4.51035 c -0.5236,-2.54735 -5.4956,-28.5618 -11.04176,-57.77442 -2.77292,-14.60552 -5.2243,-28.06594 -6.93908,-37.98496 -0.85739,-4.95951 -1.53054,-9.03371 -1.96792,-11.92214 -0.21872,-1.44422 -0.37868,-2.59237 -0.47274,-3.40408 -0.047,-0.40586 -0.0771,-0.72816 -0.0905,-0.95817 -0.007,-0.11501 -0.009,-0.20721 -0.008,-0.27227 0,-0.0651 0.0146,-0.11037 0.006,-0.0883 0.21508,-0.56043 0.61735,-0.9129 1.50346,-1.15489 0.88615,-0.24199 2.24091,-0.34258 4.24931,-0.34258 z m 355.06508,11.60969 c -1.7675,0.0146 -3.61572,0.46027 -5.40268,1.30823 -2.36149,1.1206 -4.45709,3.21359 -5.85676,5.83503 -0.9766,1.82912 -1.53784,3.31246 -1.88117,6.27784 -0.34333,2.9654 -0.47848,7.42374 -0.6268,15.27313 -0.0906,4.79405 -0.10673,9.15154 -0.0606,12.31334 0.023,1.5809 0.0611,2.86226 0.11443,3.75265 0.0268,0.44519 0.057,0.79181 0.092,1.03521 0.0176,0.12169 0.0349,0.21664 0.0591,0.2947 0.0119,0.039 0.0245,0.0734 0.0501,0.1137 0.0257,0.0403 0.0832,0.11219 0.19072,0.11219 0.097,0 0.12228,-0.0216 0.1945,-0.0471 0.0722,-0.0256 0.16411,-0.0617 0.27674,-0.10846 0.22526,-0.0935 0.53394,-0.2295 0.91851,-0.40466 0.76924,-0.35031 1.8413,-0.85577 3.13932,-1.47951 2.59602,-1.24749 6.09487,-2.96754 9.87193,-4.85966 l 13.83773,-6.93234 -0.0196,-4.77589 c -0.0112,-2.5803 -0.41451,-7.39483 -0.89759,-10.73359 -0.48432,-3.34765 -1.63909,-7.68046 -2.59776,-9.70063 -0.95379,-2.00993 -2.69698,-4.27849 -3.97779,-5.11772 -1.25874,-0.82476 -3.78126,-1.7167 -5.68917,-2.02629 -0.566,-0.0919 -1.14616,-0.13501 -1.7353,-0.13015 z m -274.09937,0.0292 c -0.58977,-0.003 -1.15465,0.0364 -1.67246,0.12043 -1.92971,0.31316 -4.69122,1.74855 -6.24121,3.23354 -1.55431,1.48911 -3.46617,4.67534 -4.31288,7.16047 -1.13217,3.32249 -1.52739,8.6094 -1.52739,20.04677 0,4.27341 0.0566,8.1581 0.14809,10.97669 0.0457,1.40929 0.10019,2.55167 0.16081,3.34573 0.0303,0.39704 0.0622,0.70608 0.0965,0.92377 0.0172,0.10884 0.0337,0.19391 0.0561,0.26478 0.0111,0.0354 0.0222,0.0676 0.0464,0.10547 0.0241,0.0379 0.0785,0.10921 0.18774,0.10921 0.0532,0 0.0699,-0.009 0.0972,-0.0172 0.0276,-0.008 0.0567,-0.0179 0.0913,-0.0307 0.0691,-0.0255 0.15794,-0.0618 0.26777,-0.10846 0.21971,-0.0934 0.5231,-0.22956 0.90281,-0.40466 0.75947,-0.3502 1.82316,-0.85581 3.11389,-1.47952 2.58128,-1.24732 6.07131,-2.96698 9.84796,-4.85891 l 0,0 13.83773,-6.93233 -0.0211,-6.24793 c -0.0115,-3.39237 -0.58778,-8.85544 -1.28578,-12.18543 -0.6978,-3.32866 -2.03119,-7.2165 -3.02859,-8.73872 -0.99595,-1.52001 -3.3831,-3.37705 -5.38477,-4.21341 -1.61873,-0.67635 -3.61166,-1.06134 -5.38101,-1.06961 z m 170.87362,0.25058 c -3.82375,0 -5.30531,0.56179 -7.80747,2.95903 -1.78536,1.71046 -3.68883,5.02648 -4.53355,7.87106 -1.16598,3.92626 -1.45784,11.57992 -1.45784,36.97816 0,25.45138 0.29071,33.04825 1.46305,36.99612 0.80922,2.72476 2.4456,5.86564 3.73471,7.0767 1.24852,1.17289 3.35002,2.568 4.73924,3.14004 1.41376,0.58216 4.01497,0.79004 5.89113,0.49068 1.86713,-0.29792 4.36619,-1.18828 5.63607,-2.02031 1.28754,-0.84364 2.98969,-3.00132 3.87683,-4.87088 0.88799,-1.87139 2.05747,-5.87145 2.6269,-8.9519 0.3207,-1.73465 0.54267,-6.10872 0.66648,-12.39786 0.12378,-6.28914 0.14469,-14.47571 0.0479,-23.7635 -0.15039,-14.4286 -0.25904,-22.13027 -0.58119,-26.77789 -0.32219,-4.64762 -0.86854,-6.26428 -1.87222,-8.43578 -1.1795,-2.55203 -3.35174,-5.42405 -4.93447,-6.46111 -1.73883,-1.13934 -4.61539,-1.83256 -7.49554,-1.83256 z m 232.956389,0 c -2.880134,0 -5.756712,0.69322 -7.495567,1.83256 -1.582699,1.03706 -3.754882,3.90908 -4.934437,6.46111 -1.002959,2.16991 -1.549407,3.78896 -1.872219,8.41034 -0.322812,4.62139 -0.432488,12.26789 -0.584192,26.58042 -0.207815,19.61134 0.06524,32.60267 0.79436,36.85177 0.62118,3.61979 2.174759,8.13407 3.534998,10.20925 1.508807,2.3019 3.646522,4.07399 5.695896,4.68838 1.796283,0.5385 4.556018,0.76996 6.225488,0.51536 1.667763,-0.25434 4.094802,-1.25269 5.482733,-2.25368 1.405543,-1.01365 3.381614,-3.54706 4.476721,-5.70189 0.922796,-1.81588 1.431275,-3.40089 1.733059,-8.42307 0.301812,-5.02219 0.407568,-13.51126 0.544544,-29.2253 0.242396,-27.81661 0.04116,-34.59977 -1.198287,-38.86309 -0.901992,-3.10288 -2.712611,-6.31928 -4.582141,-8.11041 -2.515519,-2.41004 -3.992826,-2.97175 -7.820956,-2.97175 z m -129.727639,0.10397 c 0.56859,-0.005 1.12722,0.0359 1.67101,0.12416 1.84388,0.29922 4.37483,1.20505 5.54032,1.9687 1.14338,0.74919 2.91872,3.01651 3.84163,4.96139 0.91809,1.93466 2.08631,6.28347 2.56485,9.59142 0.47992,3.31685 0.88284,8.13823 0.89388,10.68049 l 0.0188,4.53803 -13.6253,6.82612 c -3.77546,1.89133 -7.27347,3.61052 -9.86669,4.85667 -1.29662,0.62307 -2.36768,1.12819 -3.13258,1.47652 -0.38243,0.17417 -0.68858,0.3089 -0.90656,0.39943 -0.0912,0.0379 -0.15725,0.063 -0.21542,0.0845 -0.01,-0.0445 -0.0191,-0.0789 -0.0291,-0.14959 -0.0322,-0.22291 -0.0619,-0.56406 -0.0883,-1.0038 -0.0527,-0.8795 -0.0922,-2.15779 -0.11516,-3.73545 -0.046,-3.15531 -0.0291,-7.51082 0.0613,-12.30137 0.14833,-7.84771 0.28501,-12.30259 0.62459,-15.23572 0.33958,-2.93313 0.87263,-4.33405 1.83779,-6.14171 1.36463,-2.55588 3.41034,-4.59083 5.68394,-5.66973 1.74143,-0.82636 3.53533,-1.25572 5.24112,-1.27008 z m -274.10609,0.0307 c 1.7139,0.011 3.67505,0.38466 5.23741,1.03746 1.91273,0.7992 4.29395,2.66949 5.21193,4.07053 0.91652,1.39878 2.28429,5.31693 2.97402,8.60707 0.68938,3.28882 1.26613,8.75753 1.27755,12.10765 l 0.0203,6.01081 -13.62603,6.82612 c -3.77557,1.89138 -7.26449,3.61044 -9.84352,4.85667 -1.28949,0.62312 -2.35146,1.12808 -3.10714,1.47652 -0.3778,0.17422 -0.67916,0.30953 -0.89232,0.40018 -0.0834,0.0355 -0.14123,0.0588 -0.19596,0.08 -0.008,-0.0363 -0.0149,-0.0576 -0.0234,-0.10995 -0.031,-0.19796 -0.0628,-0.50207 -0.0928,-0.89385 -0.0598,-0.78355 -0.1137,-1.92237 -0.15931,-3.32853 -0.0913,-2.81232 -0.1481,-6.6947 -0.1481,-10.96472 0,-11.42842 0.40576,-16.69321 1.50645,-19.92335 0.82162,-2.41146 2.74791,-5.60023 4.21637,-7.00713 1.47278,-1.41101 4.2369,-2.84043 6.037,-3.13256 0.4925,-0.0799 1.03613,-0.11662 1.60744,-0.11295 z m 170.87734,0.24833 c 2.8178,0 5.65131,0.69858 7.28613,1.76973 1.44069,0.944 3.64751,3.81512 4.79684,6.30178 0.99583,2.15458 1.51647,3.67751 1.83702,8.3019 0.32058,4.62438 0.43007,12.32736 0.58046,26.75545 0.0968,9.28486 0.0758,17.46807 -0.0479,23.75153 -0.1237,6.28347 -0.35455,10.68503 -0.65974,12.33579 -0.56307,3.04599 -1.74434,7.06002 -2.59698,8.85689 -0.85353,1.79869 -2.5793,3.95434 -3.74069,4.7153 -1.17912,0.77259 -3.68519,1.67467 -5.48572,1.96197 -1.7916,0.28586 -4.39989,0.0626 -5.68544,-0.46674 -1.31013,-0.53947 -3.42106,-1.93652 -4.62258,-3.06525 -1.16082,-1.09056 -2.83868,-4.2417 -3.62997,-6.90615 -1.13876,-3.83472 -1.44735,-11.43854 -1.44735,-36.88691 0,-25.39523 0.3102,-33.05743 1.44214,-36.86896 0.82277,-2.77073 2.72747,-6.07138 4.43106,-7.70351 2.47122,-2.36759 3.75402,-2.85282 7.54269,-2.85282 z m 232.956389,0 c 3.79313,0 5.071273,0.48409 7.55616,2.86479 1.792391,1.71719 3.595673,4.903 4.478961,7.94136 1.211923,4.16886 1.425703,10.93823 1.183279,38.75239 -0.136948,15.71352 -0.243208,24.20412 -0.543787,29.20585 -0.300552,5.00173 -0.784336,6.48533 -1.692683,8.27272 -1.06484,2.09528 -3.064879,4.63153 -4.359234,5.56501 -1.311939,0.94615 -3.744605,1.94587 -5.316692,2.18562 -1.570408,0.23949 -4.33745,0.0122 -6.057209,-0.50339 -1.923935,-0.57678 -4.018837,-2.29411 -5.485728,-4.53205 -1.292508,-1.97191 -2.865407,-6.49796 -3.477402,-10.06415 -0.709548,-4.13518 -0.996912,-17.1763 -0.789096,-36.7822 0.151648,-14.31201 0.262248,-21.95991 0.583408,-26.55798 0.321188,-4.59806 0.842771,-6.12357 1.837835,-8.27646 1.149315,-2.48666 3.356134,-5.35778 4.796845,-6.30178 1.634779,-1.07115 4.467537,-1.76973 7.285343,-1.76973 z"
       id="path4147"
       inkscape:connector-curvature="0"
       sodipodi:nodetypes="ccccscsscssccccccsssccccccccccccscccccsccsscsscsccccccsscscccccsccsccccccccccccscssccccccscsscssscccssssccccccccccccccccsccscccccsccsccccccsscssccssscsscccccccsssssccssssscssccccccccccsccscccscscccccccssssccsscssssssssccsssccccscssssscscssssssccccsscssssssssccssscssscccssccssssccccccsssccccssssssccccccccscsssssscscccssscsccssssccscsccccccccsscsscsssssssccccsssccsscsssssssssccccssscccccsssccsccccsssssccsscsssscsscccscccsssscscsssscssscccccscccccccscssccccssssssccssccssscccssccccssscsscscsscccsccccsssccccsscsssscsccccsscssscccsscsccsccssscssscccsssscccsssscssscsssscccccscccscccccscssccccssscssscsscsssccccscscsccscscccsssssccccsccssscccccssscccsssssssssccscscscsssccccscsssssscssscccccccsscccccssccsccccsssccscscsssccccssssccccsccccscccssssccccccccsssccscscssscsccssscccccsscsccccccccssssccscsssssccccssccccsscssccccsccccscccccssccsscsccsscccssscssscssssssssssssssccssccccsssccsssssscccsccccssccccscsccsccsssssscssssccscssscssssssssssssssc" />
  </g>
</svg>
