<?xml version="1.0" encoding="UTF-8" standalone="no"?>
<svg
   xmlns:dc="http://purl.org/dc/elements/1.1/"
   xmlns:cc="http://creativecommons.org/ns#"
   xmlns:rdf="http://www.w3.org/1999/02/22-rdf-syntax-ns#"
   xmlns:svg="http://www.w3.org/2000/svg"
   xmlns="http://www.w3.org/2000/svg"
   xmlns:sodipodi="http://sodipodi.sourceforge.net/DTD/sodipodi-0.dtd"
   xmlns:inkscape="http://www.inkscape.org/namespaces/inkscape"
   width="90mm"
   height="35mm"
   viewBox="0 0 90 35"
   version="1.1"
   id="svg8"
   inkscape:version="1.0.2 (e86c8708, 2021-01-15)"
   sodipodi:docname="PLANTILLA_2_PUEBLA.svg"
   inkscape:export-filename="/Users/mac/Desktop/Control de Impresiones /CORTE LASER/LALO ADA.png"
   inkscape:export-xdpi="96"
   inkscape:export-ydpi="96">
  <defs
     id="defs2">
    <marker
       style="overflow:visible"
       refY="0"
       refX="0"
       orient="auto"
       id="DistanceX">
      <path
         id="path833"
         style="stroke:#000000;stroke-width:0.5"
         d="M 3,-3 -3,3 M 0,-5 V 5" />
    </marker>
    <pattern
       y="0"
       x="0"
       height="8"
       width="8"
       patternUnits="userSpaceOnUse"
       id="Hatch">
      <path
         id="path836"
         linecap="square"
         stroke-width="0.25"
         stroke="#000000"
         d="M8 4 l-4,4" />
      <path
         id="path838"
         linecap="square"
         stroke-width="0.25"
         stroke="#000000"
         d="M6 2 l-4,4" />
      <path
         id="path840"
         linecap="square"
         stroke-width="0.25"
         stroke="#000000"
         d="M4 0 l-4,4" />
    </pattern>
    <symbol
       id="*MODEL_SPACE" />
    <symbol
       id="*PAPER_SPACE" />
    <marker
       style="overflow:visible"
       refY="0.0"
       refX="0.0"
       orient="auto"
       id="DistanceX-9">
      <path
         id="path1255"
         style="stroke:#000000; stroke-width:0.5"
         d="M 3,-3 L -3,3 M 0,-5 L  0,5" />
    </marker>
    <pattern
       y="0"
       x="0"
       height="8"
       width="8"
       patternUnits="userSpaceOnUse"
       id="Hatch-9">
      <path
         id="path1258"
         linecap="square"
         stroke-width="0.25"
         stroke="#000000"
         d="M8 4 l-4,4" />
      <path
         id="path1260"
         linecap="square"
         stroke-width="0.25"
         stroke="#000000"
         d="M6 2 l-4,4" />
      <path
         id="path1262"
         linecap="square"
         stroke-width="0.25"
         stroke="#000000"
         d="M4 0 l-4,4" />
    </pattern>
    <symbol
       id="*MODEL_SPACE-1" />
    <symbol
       id="*PAPER_SPACE-4" />
  </defs>
  <sodipodi:namedview
     id="base"
     pagecolor="#ffffff"
     bordercolor="#666666"
     borderopacity="1.0"
     inkscape:pageopacity="0.0"
     inkscape:pageshadow="2"
     inkscape:zoom="1.979899"
     inkscape:cx="90.337676"
     inkscape:cy="4.052526"
     inkscape:document-units="mm"
     inkscape:current-layer="layer1"
     inkscape:document-rotation="0"
     showgrid="false"
     fit-margin-top="0"
     fit-margin-left="0"
     fit-margin-right="0"
     fit-margin-bottom="0"
     inkscape:object-paths="false"
     inkscape:snap-bbox="false"
     inkscape:snap-page="true"
     inkscape:snap-smooth-nodes="true"
     inkscape:window-width="1920"
     inkscape:window-height="955"
     inkscape:window-x="0"
     inkscape:window-y="23"
     inkscape:window-maximized="1" />
  <metadata
     id="metadata5">
    <rdf:RDF>
      <cc:Work
         rdf:about="">
        <dc:format>image/svg+xml</dc:format>
        <dc:type
           rdf:resource="http://purl.org/dc/dcmitype/StillImage" />
        <dc:title />
      </cc:Work>
    </rdf:RDF>
  </metadata>
  <g
     inkscape:label="Capa 1"
     inkscape:groupmode="layer"
     id="layer1"
     transform="translate(-0.50279135,-261.88101)">
    <rect
       style="fill:#defdff;fill-opacity:1;stroke:none;stroke-width:0.163168"
       id="rect1684"
       width="3"
       height="3"
       x="-2.4972086"
       y="296.88101" />
    <path
       id="rect1253"
       style="fill:#e9feff;fill-opacity:1;stroke:none;stroke-width:0.257883"
       d="M 0.50279135,261.88101 H 90.502794 v 35 H 0.50279135 Z" />
    <path
       d="M 39.741981,271.32504 H -8.7363984 l 9.23918956,-7.81026 H 30.502792 Z"
       style="fill:#fffef2;fill-opacity:1;stroke:none;stroke-width:0.264583"
       id="path1269" />
    <path
       d="M 99.741979,271.32504 H 51.2636 l 9.239189,-7.81026 H 90.50279 Z"
       style="fill:#fffef2;fill-opacity:1;stroke:none;stroke-width:0.264583"
       id="path1331" />
    <path
       d="M 99.741979,291.32502 H 51.2636 l 9.239189,-7.81023 H 90.50279 Z"
       style="fill:#fffef2;fill-opacity:1;stroke:none;stroke-width:0.264583"
       id="path1393" />
    <path
       d="M 39.477398,291.28239 H -8.4718151 l 9.13833905,-7.72497 H 30.339059 Z"
       style="fill:#fffef2;fill-opacity:1;stroke:none;stroke-width:0.261695"
       id="path1455" />
    <g
       id="g1843"
       transform="translate(-46.018601,0.47247024)">
      <path
         id="path1457"
         style="fill:none;stroke:#000000;stroke-width:0.264583"
         d="m 24.552325,285.20402 h -0.80599 l -1.328353,4.36867 h 0.675615 l 0.374615,-1.27728 h 1.328181 l 0.391643,1.27728 h 0.69247 z" />
      <path
         id="path1459"
         style="fill:none;stroke:#000000;stroke-width:0.264583"
         d="m 21.978657,288.99145 h -1.674653 v -3.78642 h -0.666882 v 4.34818 h 2.341535 z" />
      <path
         id="path1461"
         style="fill:none;stroke:#000000;stroke-width:0.264583"
         d="m 17.930704,287.22073 c 0.02939,-0.0109 0.05878,-0.0217 0.08767,-0.0336 0.02781,-0.0116 0.05516,-0.0243 0.08213,-0.0378 0.02587,-0.013 0.0514,-0.0265 0.07638,-0.0411 0.02467,-0.0143 0.04881,-0.0297 0.07227,-0.046 0.02249,-0.0156 0.04437,-0.0321 0.0657,-0.0493 0.02117,-0.0169 0.0418,-0.0348 0.0616,-0.0534 0.01946,-0.0183 0.03811,-0.0375 0.05585,-0.0575 0.01757,-0.0199 0.03425,-0.0404 0.0501,-0.0616 0.01555,-0.0209 0.03029,-0.0422 0.04435,-0.0641 0.01395,-0.0217 0.02724,-0.0438 0.03942,-0.0665 0.01204,-0.0225 0.023,-0.0455 0.03285,-0.069 0.0097,-0.0233 0.01834,-0.0468 0.02628,-0.0707 0.008,-0.0241 0.01534,-0.0484 0.02135,-0.0731 0.0061,-0.0249 0.01084,-0.0502 0.01478,-0.0756 0.004,-0.0257 0.0071,-0.0514 0.009,-0.0772 0.002,-0.0265 0.0026,-0.0531 0.0033,-0.0797" />
      <path
         id="path1463"
         style="fill:none;stroke:#000000;stroke-width:0.264583"
         d="m 17.930704,287.22073 -2.04e-4,0.0164" />
      <path
         id="path1465"
         style="fill:none;stroke:#000000;stroke-width:0.264583"
         d="m 18.778884,288.31224 c -0.0017,-0.0372 -0.0034,-0.0745 -0.0066,-0.11168 -0.003,-0.0352 -0.0072,-0.0703 -0.01314,-0.10512 -0.0057,-0.0334 -0.01299,-0.0665 -0.02135,-0.0994 -0.008,-0.0316 -0.01708,-0.0629 -0.02792,-0.0936 -0.01055,-0.0298 -0.02281,-0.0591 -0.03614,-0.0879 -0.01298,-0.028 -0.02697,-0.0556 -0.04271,-0.0821 -0.01549,-0.0262 -0.03267,-0.0513 -0.05092,-0.0756 -0.01811,-0.0241 -0.03726,-0.0475 -0.05749,-0.0698 -0.02014,-0.0222 -0.04134,-0.0435 -0.06324,-0.0641 -0.02152,-0.0201 -0.04371,-0.0396 -0.06652,-0.0583 -0.02237,-0.0183 -0.04534,-0.0359 -0.06899,-0.0525 -0.02347,-0.0164 -0.04761,-0.0321 -0.07227,-0.0468 -0.02463,-0.0148 -0.04979,-0.0285 -0.07556,-0.0411 -0.02579,-0.0124 -0.05218,-0.0238 -0.07884,-0.0345 -0.02704,-0.0109 -0.05436,-0.0209 -0.08213,-0.0296 -0.02789,-0.009 -0.05624,-0.0159 -0.08459,-0.023" />
      <path
         id="path1467"
         style="fill:none;stroke:#000000;stroke-width:0.264583"
         d="m 18.415877,289.19185 c 0.02095,-0.0201 0.04189,-0.0403 0.0616,-0.0616 0.02164,-0.0236 0.04179,-0.0483 0.06077,-0.0739 0.02088,-0.0282 0.04037,-0.0574 0.05913,-0.087 0.02066,-0.0327 0.04044,-0.0659 0.05831,-0.1002 0.01938,-0.0372 0.03652,-0.0756 0.05092,-0.11499 0.01557,-0.0426 0.02793,-0.0863 0.03778,-0.13057 0.01085,-0.0488 0.01865,-0.0982 0.02382,-0.14785 0.0057,-0.0543 0.0082,-0.10885 0.01068,-0.16343" />
      <path
         id="path1469"
         style="fill:none;stroke:#000000;stroke-width:0.264583"
         d="m 16.943319,289.60986 c 0.04326,8e-5 0.08652,1.6e-4 0.129763,0 0.04163,0 0.08324,-0.003 0.124834,-0.005 0.04,-0.003 0.07999,-0.004 0.119908,-0.007 0.0384,-0.003 0.07673,-0.007 0.114979,-0.0114 0.03676,-0.004 0.07343,-0.009 0.110052,-0.0148 0.03486,-0.005 0.06967,-0.0108 0.104303,-0.0172 0.03356,-0.006 0.06696,-0.0135 0.100196,-0.0214 0.03167,-0.007 0.06318,-0.0156 0.09445,-0.0246 0.03004,-0.009 0.05985,-0.018 0.08952,-0.0279 0.02844,-0.01 0.05675,-0.0193 0.08459,-0.0304 0.02666,-0.0106 0.05289,-0.0222 0.07884,-0.0345 0.02525,-0.0119 0.05023,-0.0243 0.07474,-0.0378 0.0235,-0.013 0.04657,-0.0265 0.06899,-0.0411 0.02189,-0.0143 0.04317,-0.0294 0.06406,-0.0452 0.02024,-0.0154 0.04012,-0.031 0.05913,-0.0476 0.01862,-0.0164 0.03641,-0.0336 0.0542,-0.0509" />
      <path
         id="path1471"
         style="fill:none;stroke:#000000;stroke-width:0.264583"
         d="m 16.062904,289.55724 c 0.02544,0.004 0.05087,0.008 0.07638,0.0108 0.02868,0.004 0.05745,0.006 0.08623,0.009 0.03201,0.003 0.06403,0.006 0.09609,0.008 0.03501,0.003 0.07007,0.005 0.105124,0.007 0.03833,0.003 0.07664,0.005 0.11498,0.007 0.04159,0.003 0.08321,0.003 0.124834,0.005 0.04462,0.003 0.08924,0.003 0.133869,0.004 0.04763,0 0.09527,0.003 0.142903,0.003" />
      <path
         id="path1473"
         style="fill:none;stroke:#000000;stroke-width:0.264583"
         d="m 16.062904,289.55724 -8.2e-4,-4.31247" />
      <path
         id="path1475"
         style="fill:none;stroke:#000000;stroke-width:0.264583"
         d="m 17.099363,285.15113 c -0.09777,0.003 -0.195532,0.003 -0.293198,0.007 -0.09322,0.004 -0.186341,0.0109 -0.279236,0.0196 -0.04385,0.004 -0.08765,0.009 -0.131405,0.014 -0.04031,0.005 -0.08057,0.01 -0.120728,0.0156 -0.03733,0.005 -0.07456,0.0114 -0.111695,0.018 -0.03373,0.006 -0.06737,0.0124 -0.101017,0.0188" />
      <path
         id="path1477"
         style="fill:none;stroke:#000000;stroke-width:0.264583"
         d="m 18.67376,286.26479 c 0.0013,-0.0301 0.0026,-0.0602 0.0016,-0.0903 -0.001,-0.0305 -0.0043,-0.061 -0.009,-0.0912 -0.0047,-0.0304 -0.01082,-0.0606 -0.01889,-0.0903 -0.0083,-0.0307 -0.01876,-0.0607 -0.03039,-0.0904 -0.01206,-0.0307 -0.0254,-0.0609 -0.04024,-0.0903 -0.01573,-0.0312 -0.03316,-0.0616 -0.05174,-0.0912 -0.01939,-0.0309 -0.04004,-0.0609 -0.0616,-0.0903 -0.02281,-0.0311 -0.04664,-0.0615 -0.07227,-0.0904 -0.02715,-0.0306 -0.05632,-0.0594 -0.08788,-0.0854 -0.03408,-0.028 -0.07095,-0.0527 -0.109231,-0.0747 -0.04207,-0.0241 -0.08586,-0.0452 -0.130584,-0.0641 -0.04936,-0.0206 -0.09985,-0.0388 -0.151115,-0.0542 -0.05648,-0.0169 -0.113903,-0.0307 -0.171648,-0.0427 -0.06396,-0.0135 -0.128317,-0.0246 -0.193002,-0.0337 -0.07088,-0.01 -0.142151,-0.0169 -0.213533,-0.0222 -0.07821,-0.006 -0.156547,-0.009 -0.234886,-0.0124" />
      <path
         id="path1479"
         style="fill:none;stroke:#000000;stroke-width:0.264583"
         d="m 15.232216,289.04032 h -1.708714 v -1.48077 h 1.52138 v -0.5166 h -1.52138 v -1.27053 h 1.612208 v -0.51657 h -2.27909 v 4.30104 h 2.375596 z" />
      <path
         id="path1481"
         style="fill:none;stroke:#000000;stroke-width:0.264583"
         d="m 11.174635,285.22699 h 0.666881" />
      <path
         id="path1483"
         style="fill:none;stroke:#000000;stroke-width:0.264583"
         d="m 11.841516,285.22699 -8.2e-4,2.57196" />
      <path
         id="path1485"
         style="fill:none;stroke:#000000;stroke-width:0.264583"
         d="m 10.261371,289.60986 c 0.05782,0 0.115639,0 0.17329,-0.005 0.05498,-0.004 0.109813,-0.0101 0.164257,-0.0188 0.05219,-0.008 0.104022,-0.019 0.155222,-0.032 0.04976,-0.0127 0.09892,-0.028 0.147009,-0.046 0.04673,-0.0175 0.09244,-0.0377 0.137154,-0.06 0.04449,-0.0222 0.08798,-0.0463 0.129763,-0.0731 0.04157,-0.0267 0.08145,-0.056 0.119907,-0.0871 0.03894,-0.0315 0.07642,-0.0647 0.111695,-0.10019 0.03612,-0.0364 0.06992,-0.0751 0.101017,-0.11581 0.03212,-0.0421 0.06135,-0.0864 0.08788,-0.13224 0.02779,-0.048 0.05261,-0.0978 0.07474,-0.14864 0.02343,-0.0539 0.04384,-0.10907 0.0616,-0.16508 0.01902,-0.06 0.03499,-0.12089 0.04846,-0.18232 0.01435,-0.0655 0.02584,-0.13155 0.03532,-0.19794 0.0102,-0.0714 0.01808,-0.14322 0.02299,-0.21518 0.0053,-0.077 0.0072,-0.15433 0.009,-0.23159" />
      <path
         id="path1487"
         style="fill:none;stroke:#000000;stroke-width:0.264583"
         d="m 8.7567819,287.81559 c 0.00169,0.0775 0.00338,0.15491 0.00821,0.2322 0.0045,0.0719 0.011726,0.14372 0.021355,0.21518 0.00894,0.0664 0.019947,0.1324 0.033672,0.19794 0.0128,0.0611 0.027964,0.12171 0.045992,0.1815 0.016782,0.0557 0.036046,0.11055 0.058311,0.16426 0.020833,0.0502 0.044295,0.0994 0.07063,0.147 0.024979,0.0451 0.052544,0.0889 0.082949,0.13057 0.029224,0.0401 0.061071,0.0783 0.095269,0.11417 0.033279,0.0349 0.068784,0.0678 0.1059452,0.0986 0.036491,0.0302 0.074579,0.0586 0.1141582,0.0846 0.039671,0.0262 0.08084,0.05 0.1231924,0.0715 0.042976,0.0217 0.087172,0.0412 0.1322263,0.0583 0.045994,0.0175 0.092883,0.0326 0.1404392,0.0452 0.048965,0.013 0.098637,0.023 0.1486519,0.0312 0.052263,0.008 0.1048999,0.0148 0.1576859,0.018 0.05519,0.003 0.110545,0.004 0.165899,0.004" />
      <path
         id="path1489"
         style="fill:none;stroke:#000000;stroke-width:0.264583"
         d="m 8.7567819,287.81559 v -2.5886" />
      <path
         id="path1491"
         style="fill:none;stroke:#000000;stroke-width:0.264583"
         d="M 8.7567819,285.22699 H 9.4236634" />
      <path
         id="path1493"
         style="fill:none;stroke:#000000;stroke-width:0.264583"
         d="m 9.4236634,285.22699 v 2.62863" />
      <path
         id="path1495"
         style="fill:none;stroke:#000000;stroke-width:0.264583"
         d="m 10.284367,289.09329 c -0.03125,0 -0.06251,0 -0.09363,-0.003 -0.02978,-0.003 -0.05944,-0.007 -0.0887,-0.0132 -0.02835,-0.006 -0.05633,-0.0138 -0.08377,-0.023 -0.027122,-0.009 -0.053715,-0.0199 -0.079665,-0.032 -0.02599,-0.0122 -0.051336,-0.0257 -0.075558,-0.0411 -0.024336,-0.0153 -0.04754,-0.0326 -0.069809,-0.0509 -0.022924,-0.0188 -0.04486,-0.0389 -0.065703,-0.06 -0.021815,-0.022 -0.042435,-0.0454 -0.061596,-0.0698 -0.019926,-0.0254 -0.038277,-0.052 -0.055026,-0.0797 -0.017859,-0.0294 -0.0339,-0.06 -0.048456,-0.0912 -0.015375,-0.033 -0.029093,-0.0667 -0.041064,-0.10101 -0.01298,-0.0372 -0.023902,-0.0752 -0.033672,-0.11335 -0.010422,-0.0408 -0.019534,-0.0818 -0.027102,-0.12319 -0.00817,-0.0446 -0.014541,-0.0896 -0.019711,-0.13467 -0.00554,-0.0483 -0.00969,-0.0968 -0.012319,-0.14539 -0.00281,-0.0519 -0.00387,-0.10398 -0.00493,-0.15603" />
      <path
         id="path1497"
         style="fill:none;stroke:#000000;stroke-width:0.264583"
         d="m 11.174635,287.85533 c -0.0015,0.0519 -0.003,0.10372 -0.0057,0.1555 -0.0026,0.0485 -0.0063,0.0971 -0.0115,0.14538 -0.0049,0.0448 -0.01108,0.0895 -0.01889,0.13386 -0.0073,0.0414 -0.01593,0.0825 -0.02628,0.12319 -0.0096,0.038 -0.02077,0.0755 -0.03367,0.11252 -0.01206,0.0346 -0.02569,0.0686 -0.04106,0.10184 -0.0143,0.0309 -0.03011,0.0611 -0.04763,0.0903 -0.01673,0.0279 -0.03502,0.0549 -0.05503,0.0805 -0.0191,0.0243 -0.03976,0.0477 -0.0616,0.0698 -0.02128,0.0214 -0.04368,0.0419 -0.06735,0.0608 -0.02324,0.0185 -0.04769,0.0355 -0.07309,0.0509 -0.02514,0.0154 -0.0512,0.029 -0.07802,0.0411 -0.02751,0.0124 -0.05582,0.023 -0.08459,0.032 -0.0294,0.009 -0.05928,0.0169 -0.08952,0.023 -0.03146,0.006 -0.06331,0.0106 -0.09527,0.0132 -0.03359,0.003 -0.06731,0.003 -0.101018,0.004" />
      <path
         id="path1499"
         style="fill:none;stroke:#000000;stroke-width:0.264583"
         d="m 11.174635,287.85533 v -2.62834" />
      <path
         id="path1501"
         style="fill:none;stroke:#000000;stroke-width:0.264583"
         d="M 5.9545696,289.54956 H 5.2876878" />
      <path
         id="path1503"
         style="fill:none;stroke:#000000;stroke-width:0.264583"
         d="m 5.2876878,289.54956 -8.202e-4,-4.26045" />
      <path
         id="path1505"
         style="fill:none;stroke:#000000;stroke-width:0.264583"
         d="m 6.3561761,285.2037 c -0.054481,0 -0.1089615,0.003 -0.163435,0.003 -0.051751,0 -0.1034962,0.003 -0.1552223,0.005 -0.048753,0.003 -0.097489,0.004 -0.1461881,0.007 -0.046021,0.003 -0.092009,0.006 -0.1379752,0.01 -0.043289,0.003 -0.086559,0.007 -0.1297625,0.0114 -0.040306,0.004 -0.080555,0.009 -0.1207286,0.014 -0.037587,0.005 -0.075108,0.0103 -0.1125156,0.0164 -0.034558,0.006 -0.06902,0.0119 -0.1034815,0.018" />
      <path
         id="path1507"
         style="fill:none;stroke:#000000;stroke-width:0.264583"
         d="m 7.5544264,285.55028 c -0.034683,-0.028 -0.069366,-0.056 -0.1059455,-0.0813 -0.03773,-0.0262 -0.077478,-0.0495 -0.1182645,-0.0706 -0.042766,-0.0222 -0.086674,-0.0421 -0.1314051,-0.06 -0.046813,-0.0188 -0.094527,-0.0351 -0.142903,-0.0493 -0.051381,-0.0151 -0.1035079,-0.0275 -0.1560436,-0.0378 -0.056024,-0.0109 -0.1125128,-0.0193 -0.1691841,-0.0262 -0.060052,-0.007 -0.1203087,-0.0132 -0.1806819,-0.0164 -0.064519,-0.003 -0.1291706,-0.004 -0.1938226,-0.005" />
      <path
         id="path1509"
         style="fill:none;stroke:#000000;stroke-width:0.264583"
         d="m 7.9511053,286.47505 c -0.00214,-0.0486 -0.00427,-0.0971 -0.00903,-0.14539 -0.00453,-0.046 -0.011456,-0.0918 -0.020532,-0.13713 -0.00864,-0.0432 -0.019243,-0.086 -0.03203,-0.12814 -0.012351,-0.0407 -0.026743,-0.0808 -0.043528,-0.11991 -0.016433,-0.0383 -0.035159,-0.0755 -0.055847,-0.11168 -0.020267,-0.0354 -0.042414,-0.0697 -0.066524,-0.10266 -0.024246,-0.0331 -0.050479,-0.0648 -0.078843,-0.0944 -0.028662,-0.0299 -0.059502,-0.0577 -0.090341,-0.0854" />
      <path
         id="path1511"
         style="fill:none;stroke:#000000;stroke-width:0.264583"
         d="m 6.3225036,287.87533 c 0.050676,-2e-5 0.1013527,-5e-5 0.1519373,-0.003 0.049405,-0.003 0.098722,-0.007 0.1478306,-0.0132 0.048162,-0.006 0.096123,-0.0135 0.1437243,-0.023 0.047231,-0.009 0.094108,-0.0206 0.1404393,-0.0337 0.045992,-0.013 0.091447,-0.0279 0.1363326,-0.0443 0.04498,-0.0164 0.089387,-0.0345 0.1330476,-0.0542 0.043755,-0.0198 0.086759,-0.0411 0.1289413,-0.0641 0.042627,-0.023 0.084415,-0.0479 0.1248349,-0.0747 0.040247,-0.0267 0.079138,-0.0556 0.1158007,-0.0871 0.0363,-0.0312 0.070415,-0.0649 0.1018389,-0.10102 0.031738,-0.0364 0.06073,-0.0753 0.087056,-0.1158 0.02686,-0.0414 0.050944,-0.0845 0.072273,-0.12894 0.022381,-0.0466 0.041729,-0.0947 0.058311,-0.14372 0.017404,-0.0514 0.031761,-0.10385 0.043528,-0.15687 0.012581,-0.0567 0.022201,-0.11401 0.028745,-0.17163 0.007,-0.0616 0.01048,-0.12364 0.013962,-0.18561" />
      <path
         id="path1513"
         style="fill:none;stroke:#000000;stroke-width:0.264583"
         d="m 5.9545696,287.84684 c 0.027871,0.005 0.055741,0.01 0.08377,0.0138 0.02971,0.004 0.059599,0.007 0.08952,0.009 0.031451,0.003 0.062938,0.004 0.094447,0.005 0.033383,0 0.06679,0 0.1001963,0" />
      <path
         id="path1515"
         style="fill:none;stroke:#000000;stroke-width:0.264583"
         d="m 5.9545696,287.84684 v 1.70272" />
    </g>
    <path
       d="m 1.0027912,296.88101 a 0.50000005,0.50000005 0 1 0 -1.00000009,0 0.50000005,0.50000005 0 1 0 1.00000009,0 z"
       style="fill:none;fill-opacity:1;stroke:#cacaca;stroke-width:0.264583;stroke-opacity:1"
       id="path1517" />
    <path
       d="m -0.99720873,298.53188 1.49999989,-1.65087"
       style="fill:none;fill-opacity:1;stroke:#cacaca;stroke-width:0.264583;stroke-opacity:1"
       id="path1519" />
    <path
       d="m 0.50279116,296.88101 1.49999994,1.65087"
       style="fill:none;fill-opacity:1;stroke:#cacaca;stroke-width:0.264583;stroke-opacity:1"
       id="path1521" />
    <text
       xml:space="preserve"
       style="font-style:normal;font-variant:normal;font-weight:normal;font-stretch:normal;font-size:5.58283px;line-height:1.25;font-family:sans-serif;-inkscape-font-specification:'sans-serif, Normal';font-variant-ligatures:normal;font-variant-caps:normal;font-variant-numeric:normal;font-variant-east-asian:normal;fill:#000000;fill-opacity:1;stroke:none;stroke-width:0.261695"
       x="9.5328712"
       y="289.4494"
       id="text1848-9"><tspan
         sodipodi:role="line"
         id="tspan1846-0"
         x="9.5328712"
         y="289.4494"
         style="font-style:normal;font-variant:normal;font-weight:normal;font-stretch:normal;font-size:5.58283px;font-family:sans-serif;-inkscape-font-specification:'sans-serif, Normal';font-variant-ligatures:normal;font-variant-caps:normal;font-variant-numeric:normal;font-variant-east-asian:normal;stroke-width:0.261695">ADA</tspan></text>
    <text
       xml:space="preserve"
       style="font-style:normal;font-variant:normal;font-weight:normal;font-stretch:normal;font-size:5.58283px;line-height:1.25;font-family:sans-serif;-inkscape-font-specification:'sans-serif, Normal';font-variant-ligatures:normal;font-variant-caps:normal;font-variant-numeric:normal;font-variant-east-asian:normal;fill:#000000;fill-opacity:1;stroke:none;stroke-width:0.261695"
       x="8.1726007"
       y="268.92023"
       id="text1848-9-8"><tspan
         sodipodi:role="line"
         id="tspan1846-0-3"
         x="8.1726007"
         y="268.92023"
         style="font-style:normal;font-variant:normal;font-weight:normal;font-stretch:normal;font-size:5.58283px;font-family:sans-serif;-inkscape-font-specification:'sans-serif, Normal';font-variant-ligatures:normal;font-variant-caps:normal;font-variant-numeric:normal;font-variant-east-asian:normal;stroke-width:0.261695">LALO</tspan></text>
  </g>
  <g
     inkscape:groupmode="layer"
     id="layer2"
     inkscape:label="Capa 2" />
</svg>
